<?xml version="1.0" encoding="utf-8"?>
<!-- Generator: Adobe Illustrator 14.0.0, SVG Export Plug-In . SVG Version: 6.00 Build 43363)  -->
<!DOCTYPE svg PUBLIC "-//W3C//DTD SVG 1.1//EN" "http://www.w3.org/Graphics/SVG/1.1/DTD/svg11.dtd">
<svg version="1.1" id="Layer_1" xmlns="http://www.w3.org/2000/svg" xmlns:xlink="http://www.w3.org/1999/xlink" x="0px" y="0px"
	 width="128px" height="128px" viewBox="0 0 128 128" enable-background="new 0 0 128 128" xml:space="preserve">
<circle fill="#FFFFFF" cx="65" cy="63.999" r="60"/>

<path fill="#005BA5" d="M65,1.75C30.62,1.75,2.75,29.62,2.75,64S30.62,126.25,65,126.25S127.25,98.38,127.25,64S99.38,1.75,65,1.75z
	 M67.887,101.977c-6.11,4.773-11.632,7.161-16.567,7.161c-3.398,0-5.867-0.87-7.404-2.609c-1.538-1.739-2.306-3.702-2.306-5.887
	c0-1.375,0.202-2.649,0.606-3.823c0.404-1.173,0.85-2.366,1.335-3.58l11.53-23.91c0.647-1.375,1.112-2.488,1.396-3.337
	c0.283-0.85,0.425-1.598,0.425-2.246c0-0.646-0.122-1.112-0.364-1.396c-0.243-0.283-0.567-0.425-0.971-0.425
	c-1.053,0-3.095,1.599-6.129,4.794c-3.034,3.196-4.835,4.794-5.401,4.794c-0.647,0-1.295-0.444-1.942-1.335
	c-0.647-0.89-0.971-1.456-0.971-1.699c0-0.809,0.768-2.123,2.306-3.944c1.537-1.82,3.479-3.742,5.826-5.765
	c2.103-1.86,4.632-3.6,7.586-5.219c2.953-1.618,5.562-2.427,7.828-2.427c3.642,0,6.372,1.031,8.192,3.095s2.731,4.551,2.731,7.464
	c0,1.213-0.122,2.509-0.364,3.884c-0.243,1.375-0.77,2.791-1.578,4.247l-9.224,20.27c-0.728,1.699-1.254,3.074-1.578,4.126
	c-0.325,1.053-0.486,1.781-0.486,2.185c0,0.485,0.122,0.789,0.364,0.91c0.243,0.122,0.485,0.183,0.728,0.183
	c1.78,0,3.863-1.274,6.251-3.823c2.387-2.549,3.903-3.823,4.551-3.823c0.566,0,1.173,0.425,1.821,1.274
	c0.646,0.85,0.971,1.437,0.971,1.76C77.05,94.169,73.994,97.203,67.887,101.977z M83.179,38.015
	c-2.145,2.185-4.754,3.277-7.828,3.277c-2.994,0-5.583-1.092-7.768-3.277c-2.185-2.185-3.277-4.773-3.277-7.768
	c0-2.993,1.093-5.583,3.277-7.768s4.773-3.277,7.768-3.277c3.074,0,5.684,1.092,7.828,3.277s3.217,4.774,3.217,7.768
	C86.396,33.242,85.323,35.83,83.179,38.015z"/>
</svg>
