<?xml version="1.0" encoding="utf-8"?>
<!-- Generator: Adobe Illustrator 14.0.0, SVG Export Plug-In . SVG Version: 6.00 Build 43363)  -->
<!DOCTYPE svg PUBLIC "-//W3C//DTD SVG 1.1//EN" "http://www.w3.org/Graphics/SVG/1.1/DTD/svg11.dtd">
<svg version="1.1" id="Layer_1" xmlns="http://www.w3.org/2000/svg" xmlns:xlink="http://www.w3.org/1999/xlink" x="0px" y="0px"
	 width="128px" height="128px" viewBox="0 0 128 128" enable-background="new 0 0 128 128" xml:space="preserve">
<circle fill="#FFFFFF" cx="65" cy="63.999" r="60"/>
<g>
	<path fill="#ED1C24" d="M72.295,61.178c-2.806-3.328-5.003-7.01-6.725-10.772c-2.223,6.05-5.776,12.914-11.431,23.978
		c-0.471,0.922-0.935,1.809-1.393,2.667c4.177-2,14.308-6.352,27.553-8.692C77.331,66.27,74.575,63.881,72.295,61.178z"/>
	<path fill="#ED1C24" d="M65,1.75C30.62,1.75,2.75,29.62,2.75,64S30.62,126.25,65,126.25S127.25,98.38,127.25,64S99.38,1.75,65,1.75
		z M91.277,70.03c10.677,5.347,20.369,6.56,21.733,3.825c0,0,0.845,4.933-5.635,4.933c-4.324,0-14.103-2.638-23.06-7.862
		c-0.629,0.1-1.268,0.204-1.922,0.316c-16.381,2.829-25.936,5.895-30.694,7.734c-10.764,19.528-17.592,21.61-18.732,21.854
		c-1.227,0.263-3.94,0.088-6.041-1.926c-2.102-2.015,1.027-7.026,6.041-11.729c3.844-3.607,11.467-6.564,11.467-6.564
		C26.753,97.155,29.816,98.818,29.816,98.818c8.754-1.75,22.149-28.625,29.676-44.118c1.596-3.284,2.945-6.393,4.086-9.257
		c-2.76-7.866-3.699-15.58-3.974-20.713c-0.466-8.683,3.565-9.07,4.962-9.07c1.396,0,7.906-0.465,4.959,11.085
		c0,0-0.088-0.412-0.248-1.072c0.105-4.436-3.383-12.906-5.156-7.205c0,0-1.396,8.132,1.943,20.192
		c2.283-6.818,3.059-11.099,3.059-11.099c-0.131,6.642-0.525,11.471-1.53,16.012c3.396,9.733,8.646,17.571,18.995,23.862
		c0.844-0.097,1.689-0.188,2.553-0.264c22.209-1.979,25,1.047,24.303,5.812C113.443,72.986,109.289,68.304,91.277,70.03z"/>
</g>
</svg>
