<?xml version="1.0" encoding="utf-8"?>
<!-- Generator: Adobe Illustrator 14.0.0, SVG Export Plug-In . SVG Version: 6.00 Build 43363)  -->
<!DOCTYPE svg PUBLIC "-//W3C//DTD SVG 1.1//EN" "http://www.w3.org/Graphics/SVG/1.1/DTD/svg11.dtd">
<svg version="1.1" id="Layer_1" xmlns="http://www.w3.org/2000/svg" xmlns:xlink="http://www.w3.org/1999/xlink" x="0px" y="0px"
	 width="320px" height="48px" viewBox="0 0 320 48" enable-background="new 0 0 320 48" xml:space="preserve">
<g id="PoweredByInspiredLabs_4_">
	<g id="Layer_2_copy_4_">
		<g>
			<path fill="#FFFFFF" d="M145.2,0.9v22.3h-4.8V0.9H145.2z"/>
			<path fill="#FFFFFF" d="M150.9,7.1v2.3h0.1c0.6-0.9,1.3-1.6,2.2-2c0.9-0.4,1.8-0.6,2.7-0.6c1.2,0,2.1,0.2,2.9,0.5
				c0.7,0.3,1.3,0.8,1.8,1.3c0.4,0.6,0.7,1.3,0.9,2.1c0.2,0.8,0.3,1.7,0.3,2.7v9.9h-4.4v-9.1c0-1.3-0.2-2.3-0.6-3
				c-0.4-0.6-1.1-1-2.2-1c-1.2,0-2.1,0.4-2.6,1.1c-0.5,0.7-0.8,1.9-0.8,3.6v8.5h-4.4V7.1H150.9z"/>
			<path fill="#FFFFFF" d="M166.5,19.2c0.2,0.3,0.4,0.6,0.8,0.8c0.3,0.2,0.7,0.4,1.1,0.5c0.4,0.1,0.8,0.2,1.2,0.2c0.3,0,0.6,0,1-0.1
				c0.3-0.1,0.6-0.2,0.9-0.3c0.3-0.2,0.5-0.4,0.7-0.6c0.2-0.3,0.3-0.6,0.3-1c0-0.7-0.4-1.2-1.3-1.5c-0.9-0.3-2.1-0.7-3.6-1
				c-0.6-0.1-1.3-0.3-1.9-0.5c-0.6-0.2-1.1-0.5-1.6-0.8c-0.5-0.3-0.9-0.7-1.1-1.2c-0.3-0.5-0.4-1.1-0.4-1.8c0-1,0.2-1.9,0.6-2.6
				c0.4-0.7,0.9-1.2,1.6-1.6c0.6-0.4,1.4-0.7,2.2-0.8c0.8-0.2,1.7-0.2,2.5-0.2c0.9,0,1.7,0.1,2.5,0.3c0.8,0.2,1.5,0.4,2.2,0.8
				c0.6,0.4,1.2,0.9,1.6,1.6c0.4,0.7,0.7,1.5,0.8,2.5h-4.2c-0.1-0.9-0.4-1.4-0.9-1.7c-0.6-0.3-1.3-0.5-2-0.5c-0.2,0-0.5,0-0.8,0.1
				c-0.3,0-0.6,0.1-0.8,0.2c-0.2,0.1-0.4,0.3-0.6,0.5c-0.2,0.2-0.2,0.5-0.2,0.8c0,0.4,0.1,0.7,0.4,1c0.3,0.3,0.7,0.5,1.1,0.6
				c0.5,0.2,1,0.3,1.6,0.4c0.6,0.1,1.2,0.3,1.8,0.4c0.6,0.1,1.3,0.3,1.9,0.5c0.6,0.2,1.1,0.5,1.6,0.8c0.5,0.3,0.9,0.8,1.1,1.3
				c0.3,0.5,0.4,1.1,0.4,1.9c0,1.1-0.2,2-0.6,2.7c-0.4,0.7-1,1.3-1.6,1.7c-0.7,0.4-1.4,0.7-2.3,0.9c-0.9,0.2-1.8,0.3-2.7,0.3
				c-0.9,0-1.8-0.1-2.7-0.3c-0.9-0.2-1.7-0.5-2.4-0.9c-0.7-0.4-1.2-1-1.7-1.7c-0.4-0.7-0.7-1.6-0.7-2.7h4.2
				C166.2,18.5,166.3,18.9,166.5,19.2z"/>
			<path fill="#FFFFFF" d="M182.3,7.1v2.1h0.1c0.5-0.9,1.2-1.5,2-1.9c0.8-0.4,1.7-0.6,2.7-0.6c1.3,0,2.3,0.2,3.2,0.7
				c0.9,0.5,1.7,1.1,2.2,1.9c0.6,0.8,1,1.7,1.3,2.8c0.3,1.1,0.4,2.2,0.4,3.3c0,1.1-0.1,2.1-0.4,3.1c-0.3,1-0.7,1.9-1.3,2.7
				c-0.6,0.8-1.3,1.4-2.2,1.8c-0.9,0.5-1.9,0.7-3.1,0.7c-1,0-1.9-0.2-2.7-0.6c-0.8-0.4-1.5-1-2-1.8h-0.1v7.7h-4.4V7.1L182.3,7.1
				L182.3,7.1z M188,19.9c0.5-0.3,0.9-0.7,1.2-1.1c0.3-0.5,0.5-1,0.6-1.6c0.1-0.6,0.2-1.3,0.2-1.9c0-0.6-0.1-1.3-0.2-1.9
				c-0.1-0.6-0.4-1.2-0.7-1.7c-0.3-0.5-0.7-0.9-1.2-1.2c-0.5-0.3-1.1-0.5-1.8-0.5c-0.7,0-1.3,0.1-1.8,0.5c-0.5,0.3-0.9,0.7-1.2,1.2
				c-0.3,0.5-0.5,1-0.6,1.7c-0.1,0.6-0.2,1.3-0.2,1.9c0,0.6,0.1,1.3,0.2,1.9c0.1,0.6,0.3,1.2,0.6,1.6c0.3,0.5,0.7,0.8,1.2,1.1
				c0.5,0.3,1.1,0.4,1.8,0.4C186.9,20.3,187.5,20.2,188,19.9z"/>
			<path fill="#FFFFFF" d="M195.7,4.6V0.9h4.4v3.7H195.7L195.7,4.6z M200.1,7.1v16.2h-4.4V7.1H200.1z"/>
			<path fill="#FFFFFF" d="M206,7.1v3h0.1c0.2-0.5,0.5-1,0.8-1.4c0.3-0.4,0.7-0.8,1.2-1.1c0.4-0.3,0.9-0.5,1.4-0.7
				c0.5-0.2,1-0.3,1.6-0.3c0.3,0,0.6,0.1,1,0.2v4.1c-0.2,0-0.5-0.1-0.7-0.1c-0.3,0-0.6,0-0.8,0c-0.8,0-1.5,0.1-2,0.4
				c-0.6,0.3-1,0.6-1.3,1.1c-0.3,0.5-0.6,1-0.7,1.6c-0.1,0.6-0.2,1.3-0.2,2v7.3h-4.4V7.1H206z"/>
			<path fill="#FFFFFF" d="M217.2,19.4c0.7,0.6,1.6,1,2.8,1c0.9,0,1.6-0.2,2.3-0.7c0.6-0.4,1-0.9,1.2-1.4h3.8
				c-0.6,1.9-1.6,3.3-2.8,4.2c-1.3,0.8-2.8,1.2-4.6,1.2c-1.3,0-2.4-0.2-3.4-0.6c-1-0.4-1.9-1-2.6-1.7c-0.7-0.7-1.2-1.6-1.6-2.7
				c-0.4-1-0.6-2.2-0.6-3.4c0-1.2,0.2-2.3,0.6-3.4c0.4-1,0.9-1.9,1.7-2.7c0.7-0.8,1.6-1.4,2.6-1.8c1-0.4,2.1-0.7,3.3-0.7
				c1.4,0,2.5,0.3,3.5,0.8c1,0.5,1.8,1.2,2.5,2.1c0.6,0.9,1.1,1.9,1.4,3.1c0.3,1.1,0.4,2.3,0.3,3.6h-11.5
				C216.2,17.7,216.6,18.7,217.2,19.4z M222.2,10.9c-0.5-0.6-1.3-0.9-2.4-0.9c-0.7,0-1.3,0.1-1.7,0.4c-0.5,0.2-0.8,0.5-1.1,0.9
				c-0.3,0.4-0.5,0.7-0.6,1.1c-0.1,0.4-0.2,0.8-0.2,1.1h7.1C223.1,12.3,222.7,11.4,222.2,10.9z"/>
			<path fill="#FFFFFF" d="M240.5,21.2c-0.5,0.9-1.2,1.5-2,1.9c-0.8,0.4-1.8,0.6-2.8,0.6c-1.2,0-2.2-0.2-3.1-0.7
				c-0.9-0.5-1.6-1.1-2.2-1.9c-0.6-0.8-1-1.7-1.3-2.8c-0.3-1-0.4-2.1-0.4-3.3c0-1.1,0.2-2.1,0.4-3.1c0.3-1,0.7-1.9,1.3-2.7
				c0.6-0.8,1.3-1.4,2.2-1.9c0.9-0.5,1.9-0.7,3.1-0.7c0.9,0,1.8,0.2,2.7,0.6c0.9,0.4,1.5,1,2,1.8h0.1V0.9h4.4v22.3h-4.2L240.5,21.2
				L240.5,21.2L240.5,21.2z M240.4,13.2c-0.1-0.6-0.3-1.2-0.6-1.6c-0.3-0.5-0.7-0.9-1.2-1.1c-0.5-0.3-1.1-0.4-1.8-0.4
				c-0.7,0-1.3,0.1-1.8,0.4c-0.5,0.3-0.9,0.7-1.2,1.2c-0.3,0.5-0.5,1-0.6,1.6c-0.1,0.6-0.2,1.3-0.2,1.9c0,0.6,0.1,1.3,0.2,1.9
				c0.1,0.6,0.4,1.2,0.7,1.7c0.3,0.5,0.7,0.9,1.2,1.2c0.5,0.3,1.1,0.5,1.7,0.5c0.7,0,1.3-0.1,1.8-0.4c0.5-0.3,0.9-0.7,1.2-1.2
				c0.3-0.5,0.5-1,0.6-1.7c0.1-0.6,0.2-1.3,0.2-1.9C240.5,14.5,240.5,13.8,240.4,13.2z"/>
			<path fill="#FFFFFF" d="M258.9,0.9v18.2h10.7v4.1h-15.5V0.9H258.9z"/>
			<path fill="#FFFFFF" d="M271.3,9.5c0.4-0.7,1-1.2,1.7-1.7c0.7-0.4,1.5-0.7,2.4-0.9c0.9-0.2,1.7-0.3,2.6-0.3
				c0.8,0,1.6,0.1,2.4,0.2c0.8,0.1,1.6,0.3,2.3,0.7s1.2,0.8,1.7,1.4c0.4,0.6,0.6,1.4,0.6,2.4v8.4c0,0.7,0,1.4,0.1,2.1
				c0.1,0.7,0.2,1.2,0.4,1.5h-4.4c-0.1-0.3-0.1-0.5-0.2-0.8c0-0.3-0.1-0.5-0.1-0.8c-0.7,0.7-1.5,1.2-2.5,1.5
				c-0.9,0.3-1.9,0.4-2.9,0.4c-0.8,0-1.5-0.1-2.1-0.3c-0.7-0.2-1.2-0.5-1.7-0.9c-0.5-0.4-0.9-0.9-1.2-1.5c-0.3-0.6-0.4-1.3-0.4-2.2
				c0-0.9,0.2-1.7,0.5-2.3c0.3-0.6,0.7-1.1,1.2-1.4c0.5-0.4,1.1-0.6,1.7-0.8c0.6-0.2,1.3-0.3,2-0.4c0.7-0.1,1.3-0.2,1.9-0.2
				c0.6-0.1,1.2-0.2,1.7-0.3c0.5-0.1,0.9-0.3,1.2-0.5c0.3-0.2,0.4-0.6,0.4-1c0-0.5-0.1-0.9-0.2-1.1c-0.2-0.3-0.4-0.5-0.6-0.7
				c-0.3-0.2-0.6-0.3-0.9-0.3c-0.3-0.1-0.7-0.1-1.1-0.1c-0.9,0-1.5,0.2-2,0.6c-0.5,0.4-0.8,1-0.9,1.9h-4.4
				C270.6,11,270.8,10.1,271.3,9.5z M279.9,15.7c-0.3,0.1-0.6,0.2-0.9,0.2c-0.3,0.1-0.6,0.1-1,0.2c-0.3,0-0.7,0.1-1.1,0.2
				c-0.3,0.1-0.6,0.1-1,0.2c-0.3,0.1-0.6,0.3-0.8,0.4c-0.2,0.2-0.4,0.4-0.6,0.7c-0.1,0.3-0.2,0.6-0.2,1c0,0.4,0.1,0.7,0.2,1
				c0.1,0.3,0.3,0.5,0.6,0.6c0.2,0.2,0.5,0.3,0.9,0.3c0.3,0.1,0.7,0.1,1,0.1c0.9,0,1.5-0.1,2-0.4c0.5-0.3,0.8-0.6,1-1
				c0.2-0.4,0.4-0.8,0.4-1.2c0.1-0.4,0.1-0.7,0.1-1v-1.7C280.4,15.5,280.2,15.6,279.9,15.7z"/>
			<path fill="#FFFFFF" d="M291.3,0.9v8.1h0.1c0.5-0.8,1.3-1.4,2.2-1.8c0.9-0.4,1.9-0.6,2.8-0.6c0.8,0,1.6,0.2,2.4,0.5
				c0.8,0.3,1.5,0.8,2.1,1.5c0.6,0.7,1.1,1.6,1.5,2.6c0.4,1.1,0.6,2.4,0.6,3.8c0,1.5-0.2,2.8-0.6,3.8c-0.4,1.1-0.9,2-1.5,2.7
				c-0.6,0.7-1.3,1.2-2.1,1.5c-0.8,0.3-1.6,0.5-2.4,0.5c-1.2,0-2.2-0.2-3.1-0.6c-0.9-0.4-1.6-1-2.1-1.9h-0.1v2.1h-4.2V0.9H291.3z
				 M298.4,13.2c-0.1-0.6-0.4-1.2-0.7-1.7c-0.3-0.5-0.7-0.9-1.2-1.1c-0.5-0.3-1-0.4-1.7-0.4c-0.6,0-1.2,0.1-1.7,0.4
				c-0.5,0.3-0.9,0.7-1.2,1.1c-0.3,0.5-0.5,1-0.7,1.7c-0.1,0.6-0.2,1.3-0.2,2c0,0.7,0.1,1.3,0.2,1.9c0.1,0.6,0.4,1.2,0.7,1.7
				c0.3,0.5,0.7,0.9,1.2,1.1c0.5,0.3,1,0.4,1.7,0.4c0.7,0,1.2-0.1,1.7-0.4c0.5-0.3,0.8-0.7,1.2-1.1c0.3-0.5,0.5-1,0.7-1.7
				c0.1-0.6,0.2-1.3,0.2-1.9C298.6,14.5,298.5,13.8,298.4,13.2z"/>
			<path fill="#FFFFFF" d="M308.4,19.2c0.2,0.3,0.4,0.6,0.7,0.8c0.3,0.2,0.7,0.4,1.1,0.5c0.4,0.1,0.8,0.2,1.2,0.2c0.3,0,0.6,0,1-0.1
				c0.3-0.1,0.6-0.2,0.9-0.3c0.3-0.2,0.5-0.4,0.7-0.6c0.2-0.3,0.3-0.6,0.3-1c0-0.7-0.4-1.2-1.3-1.5c-0.9-0.3-2.1-0.7-3.7-1
				c-0.6-0.1-1.3-0.3-1.9-0.5c-0.6-0.2-1.1-0.5-1.6-0.8c-0.5-0.3-0.8-0.7-1.1-1.2c-0.3-0.5-0.4-1.1-0.4-1.8c0-1,0.2-1.9,0.6-2.6
				c0.4-0.7,0.9-1.2,1.6-1.6c0.7-0.4,1.4-0.7,2.2-0.8c0.8-0.2,1.7-0.2,2.5-0.2c0.9,0,1.7,0.1,2.5,0.3c0.8,0.2,1.5,0.4,2.2,0.8
				c0.6,0.4,1.2,0.9,1.6,1.6c0.4,0.7,0.7,1.5,0.7,2.5h-4.2c-0.1-0.9-0.4-1.4-1-1.7c-0.6-0.3-1.3-0.5-2-0.5c-0.2,0-0.5,0-0.8,0.1
				c-0.3,0-0.6,0.1-0.8,0.2c-0.2,0.1-0.4,0.3-0.6,0.5c-0.2,0.2-0.2,0.5-0.2,0.8c0,0.4,0.1,0.7,0.4,1c0.3,0.3,0.7,0.5,1.1,0.6
				c0.5,0.2,1,0.3,1.6,0.4c0.6,0.1,1.2,0.3,1.8,0.4c0.6,0.1,1.3,0.3,1.9,0.5c0.6,0.2,1.1,0.5,1.6,0.8c0.5,0.3,0.9,0.8,1.1,1.3
				c0.3,0.5,0.4,1.1,0.4,1.9c0,1.1-0.2,2-0.6,2.7c-0.4,0.7-1,1.3-1.6,1.7c-0.7,0.4-1.5,0.7-2.3,0.9c-0.9,0.2-1.8,0.3-2.7,0.3
				c-0.9,0-1.8-0.1-2.7-0.3c-0.9-0.2-1.7-0.5-2.4-0.9c-0.7-0.4-1.2-1-1.7-1.7c-0.4-0.7-0.7-1.6-0.7-2.7h4.2
				C308.1,18.5,308.2,18.9,308.4,19.2z"/>
		</g>
	</g>
	<g id="Layer_3_7_">
		<polygon fill="#FFFFFF" points="130.4,10.9 130.4,19.2 137.9,15.1 		"/>
	</g>
	<g>
		<path fill="#FFFFFF" d="M17.3,10.4c0,1.5-0.7,2.7-2,3.8s-2.8,1.6-4.5,1.6c-1.1,0-2.1-0.1-2.9-0.3l-1.2,5.2
			c-0.1,0.3-0.2,0.6-0.2,0.9c0,0.4,0.2,0.7,0.5,0.9c0.3,0.2,0.9,0.3,1.8,0.4c0.1,0,0.1,0.1,0.1,0.2c0,0.1,0,0.2-0.1,0.3
			c-0.1,0.1-0.1,0.2-0.2,0.2c-0.6,0-1.3,0-2.2-0.1c-0.7-0.1-1.3-0.1-1.8-0.1c-0.4,0-1,0-1.8,0.1c-0.8,0.1-1.5,0.1-2,0.1
			c-0.1,0-0.1-0.1-0.1-0.2c0-0.1,0-0.2,0.1-0.3C0.9,23,1,23,1,23c0.7-0.1,1.2-0.2,1.6-0.3c0.4-0.1,0.7-0.3,0.9-0.5
			c0.2-0.2,0.4-0.7,0.5-1.4L6.9,8.5C7,8.1,7,7.8,7,7.6c0-0.4-0.2-0.7-0.5-0.9C6.2,6.5,5.6,6.4,4.7,6.3c-0.1,0-0.1-0.1-0.1-0.2
			c0-0.1,0-0.2,0.1-0.4c0.1-0.1,0.1-0.2,0.2-0.2c0.6,0,1.2,0,1.9,0.1c0.6,0,1.1,0.1,1.5,0.1c0.4,0,0.9,0,1.5-0.1
			c0.7-0.1,1.3-0.1,1.9-0.1c1.8,0,3.1,0.4,4.1,1.2C16.8,7.6,17.3,8.8,17.3,10.4z M14.6,10.1c0-1.2-0.2-2.1-0.7-2.7
			c-0.5-0.6-1.2-1-2.1-1c-0.7,0-1.2,0.1-1.5,0.4C9.9,7.1,9.7,7.6,9.5,8.5L8.2,14c0,0.1-0.1,0.3-0.1,0.4c0,0.3,0.1,0.4,0.3,0.5
			C8.7,15,9.1,15,9.8,15c1.3,0,2.4-0.5,3.4-1.5C14.1,12.6,14.6,11.4,14.6,10.1z"/>
		<path fill="#FFFFFF" d="M25.2,16.1c0,1.2-0.3,2.5-1,3.8c-0.6,1.3-1.5,2.3-2.5,3.1c-1,0.8-2,1.2-3,1.2c-0.8,0-1.6-0.4-2.2-1.1
			c-0.6-0.8-0.9-1.7-0.9-2.8c0-1.2,0.3-2.5,1-3.8c0.6-1.3,1.5-2.3,2.5-3.1c1-0.8,2-1.2,3-1.2c0.8,0,1.6,0.4,2.2,1.1
			C24.9,14,25.2,14.9,25.2,16.1z M23.1,14.4c0-0.6-0.1-0.9-0.2-1.2c-0.1-0.2-0.4-0.3-0.8-0.3c-0.6,0-1.2,0.5-1.9,1.4
			c-0.7,1-1.3,2.1-1.8,3.5c-0.5,1.4-0.7,2.7-0.7,3.9c0,0.6,0.1,1,0.2,1.2c0.1,0.2,0.4,0.3,0.8,0.3c0.6,0,1.2-0.5,1.9-1.4
			c0.7-1,1.3-2.1,1.7-3.5C22.9,17,23.1,15.7,23.1,14.4z"/>
		<path fill="#FFFFFF" d="M44.9,14.1c0,1.3-0.4,2.8-1.2,4.4c-0.8,1.6-1.8,3-3,4c-1.2,1-2.3,1.5-3.4,1.5c-1,0-1.8-0.6-2.2-1.8
			c-1.5,1.2-2.7,1.8-3.6,1.8c-0.8,0-1.4-0.3-1.8-0.8c-0.4-0.5-0.7-1.2-0.7-2.1c0-1,0.4-2.3,1.2-3.7c0.8-1.5,1.6-2.6,2.6-3.5
			c-0.3,0.1-0.7,0.2-1,0.2c-0.3,0-0.6-0.1-1.1-0.2c-0.4-0.1-0.7-0.2-0.9-0.2c-0.6,0-1,0.1-1.3,0.3c-0.3,0.2-0.5,0.5-0.5,0.8
			c0,0.2,0.1,0.3,0.3,0.6c0.2,0.3,0.4,0.6,0.4,0.9c0,0.6-0.3,0.9-0.9,0.9c-0.3,0-0.6-0.1-0.8-0.4c-0.2-0.3-0.3-0.6-0.3-1
			c0-0.7,0.4-1.6,1.2-2.5c0.8-0.9,1.6-1.3,2.3-1.3c0.4,0,0.8,0.1,1.4,0.2c0.4,0.1,0.8,0.2,1,0.2c0.3,0,0.6-0.1,1.1-0.2
			c0.2-0.1,0.3-0.1,0.3-0.1c0.1,0,0.2,0,0.3,0.1c0.1,0.1,0.1,0.2,0.1,0.3c0,0.2-0.3,0.6-0.8,1.3c-0.9,1.2-1.6,2.3-1.9,3.2
			c-0.3,0.9-0.5,1.9-0.5,3c0,1.2,0.5,1.8,1.5,1.8c0.8,0,1.5-0.2,2.2-0.7c-0.1-0.4-0.1-0.8-0.1-1.2c0-1.9,0.4-3.7,1.3-5.4
			c0.8-1.7,1.8-2.6,2.7-2.6c0.8,0,1.3,0.6,1.3,1.8c0,2.1-1.1,4.4-3.3,6.9c0.3,0.8,0.8,1.2,1.8,1.2c1.2,0,2.3-0.6,3.2-1.9
			c0.9-1.3,1.4-2.7,1.4-4.2c0-0.5-0.1-1.1-0.4-1.6c-0.2-0.3-0.3-0.6-0.3-0.9c0-0.4,0.1-0.7,0.3-1c0.2-0.2,0.5-0.4,0.9-0.4
			c0.4,0,0.7,0.2,0.9,0.6C44.8,13,44.9,13.5,44.9,14.1z M39,14.3c0-0.5-0.2-0.7-0.5-0.7c-0.6,0-1.1,0.4-1.6,1.3
			c-0.4,0.9-0.7,2-0.7,3.3c0,0.6,0.1,1.1,0.2,1.6c0.8-0.9,1.4-1.9,1.9-2.9C38.8,15.9,39,15.1,39,14.3z"/>
		<path fill="#FFFFFF" d="M54,14c0,1.2-0.6,2.3-1.7,3.2c-1.2,1-2.5,1.4-4.1,1.4c-0.1,0.5-0.1,1-0.1,1.4c0,0.8,0.1,1.3,0.3,1.6
			c0.2,0.3,0.6,0.5,1,0.5c1.1,0,2.1-0.6,2.9-1.9l0.1,0c0.1,0,0.1,0,0.2,0.1c0.1,0.1,0.1,0.2,0.1,0.3c0,0.2-0.3,0.6-0.8,1.3
			c-0.5,0.7-1.1,1.2-1.6,1.6c-0.6,0.4-1.1,0.6-1.7,0.6c-0.8,0-1.5-0.3-2.1-1c-0.5-0.7-0.8-1.4-0.8-2.3c0-1.3,0.3-2.6,1-3.9
			c0.6-1.4,1.5-2.5,2.5-3.4c1-0.9,1.9-1.4,2.8-1.4c0.6,0,1.1,0.2,1.4,0.5C53.8,12.9,54,13.4,54,14z M52.2,14.5
			c0-0.7-0.3-1.1-0.9-1.1c-0.6,0-1.2,0.4-1.7,1.3c-0.5,0.9-0.9,1.9-1.1,3.2c0.7,0,1.4-0.2,1.9-0.5c0.6-0.3,1-0.8,1.4-1.3
			C52,15.5,52.2,14.9,52.2,14.5z"/>
		<path fill="#FFFFFF" d="M65.1,13.5c0,0.4-0.1,0.8-0.4,1c-0.2,0.3-0.5,0.4-0.9,0.4c-0.3,0-0.6-0.2-0.9-0.5
			c-0.2-0.3-0.5-0.4-0.7-0.4c-0.5,0-1.3,0.9-2.4,2.6c-1.1,1.8-2.1,4-3.3,6.6c-0.1,0.3-0.5,0.4-1.2,0.4c-0.2,0-0.4,0-0.6-0.1
			c-0.2-0.1-0.3-0.2-0.3-0.3l0-0.1l2.7-8c0.2-0.7,0.3-1.1,0.3-1.3c0-0.2-0.1-0.3-0.3-0.3c-0.3,0-0.8,0.5-1.5,1.4
			c-0.3,0.5-0.5,0.7-0.6,0.7c-0.1,0-0.2,0-0.3-0.2c-0.1-0.1-0.1-0.2-0.1-0.3c0-0.1,0.3-0.5,0.8-1.2c0.6-0.7,1.1-1.2,1.6-1.6
			c0.5-0.4,1-0.6,1.4-0.6c0.9,0,1.3,0.4,1.3,1.2c0,0.4-0.1,1.1-0.4,1.9l-0.5,1.4c1.6-3,3.1-4.4,4.3-4.4c0.5,0,0.9,0.1,1.2,0.4
			C65,12.7,65.1,13.1,65.1,13.5z"/>
		<path fill="#FFFFFF" d="M72.9,14c0,1.2-0.6,2.3-1.7,3.2c-1.2,1-2.5,1.4-4.1,1.4c-0.1,0.5-0.1,1-0.1,1.4c0,0.8,0.1,1.3,0.3,1.6
			c0.2,0.3,0.6,0.5,1,0.5c1.1,0,2.1-0.6,2.9-1.9l0.1,0c0.1,0,0.1,0,0.2,0.1c0.1,0.1,0.1,0.2,0.1,0.3c0,0.2-0.3,0.6-0.8,1.3
			c-0.5,0.7-1.1,1.2-1.6,1.6c-0.6,0.4-1.1,0.6-1.7,0.6c-0.8,0-1.5-0.3-2.1-1c-0.5-0.7-0.8-1.4-0.8-2.3c0-1.3,0.3-2.6,1-3.9
			c0.6-1.4,1.5-2.5,2.5-3.4c1-0.9,1.9-1.4,2.8-1.4c0.6,0,1.1,0.2,1.4,0.5C72.7,12.9,72.9,13.4,72.9,14z M71,14.5
			c0-0.7-0.3-1.1-0.9-1.1c-0.6,0-1.2,0.4-1.7,1.3c-0.5,0.9-0.9,1.9-1.1,3.2c0.7,0,1.4-0.2,1.9-0.5c0.6-0.3,1-0.8,1.4-1.3
			C70.9,15.5,71,14.9,71,14.5z"/>
		<path fill="#FFFFFF" d="M87.9,4.9c0,0.1,0,0.4-0.1,0.7l-5.2,14.7c-0.3,0.8-0.5,1.4-0.5,1.6c0,0.3,0.1,0.4,0.3,0.4
			c0.3,0,0.8-0.5,1.6-1.6c0.3-0.4,0.5-0.6,0.5-0.6c0.1,0,0.2,0,0.3,0.1c0.1,0.1,0.1,0.2,0.1,0.3c0,0.1-0.3,0.6-0.8,1.3
			c-0.6,0.7-1.1,1.3-1.6,1.6c-0.5,0.4-1,0.6-1.4,0.6c-0.9,0-1.4-0.5-1.4-1.5c0-0.6,0.2-1.5,0.7-2.6c-0.7,1.2-1.5,2.1-2.4,2.9
			c-0.9,0.8-1.7,1.2-2.5,1.2c-0.6,0-1.1-0.2-1.4-0.7c-0.4-0.5-0.6-1.1-0.6-1.9c0-1.2,0.4-2.6,1.3-4.1c0.8-1.5,1.9-2.7,3.2-3.8
			c1.3-1.1,2.4-1.6,3.3-1.6c0.3,0,0.6,0.1,1,0.2c0.3,0.1,0.6,0.3,0.7,0.5l1.4-4.1c0.2-0.5,0.3-0.9,0.3-1.2c0-0.3-0.4-0.6-1.1-0.6
			c-0.2,0-0.2-0.1-0.2-0.3c0-0.2,0.1-0.3,0.2-0.3c0.5-0.1,1.2-0.3,1.9-0.6c0.8-0.3,1.3-0.6,1.7-0.8c0.2-0.1,0.3-0.2,0.4-0.2
			C87.8,4.7,87.9,4.8,87.9,4.9z M82.5,14.2c0-0.8-0.4-1.3-1.2-1.3c-0.7,0-1.5,0.4-2.4,1.3c-0.9,0.9-1.6,2-2.2,3.3
			c-0.6,1.3-0.9,2.5-0.9,3.6c0,0.8,0.3,1.2,0.8,1.2c0.6,0,1.3-0.5,2.1-1.4c0.9-1,1.7-2.2,2.5-3.7C82.1,15.7,82.5,14.7,82.5,14.2z"/>
		<path fill="#FFFFFF" d="M106.4,9.5c0,1-0.4,1.9-1.2,2.7s-1.8,1.3-3.1,1.6c0.9,0.2,1.8,0.7,2.5,1.5c0.7,0.8,1.1,1.7,1.1,2.6
			c0,1.6-0.6,3-1.9,4.1c-1.3,1.1-2.8,1.7-4.6,1.7c-0.6,0-1.4,0-2.4-0.1c-1-0.1-1.7-0.1-2.3-0.1c-0.5,0-1.2,0-2,0.1
			c-0.9,0.1-1.6,0.1-2.1,0.1c-0.1,0-0.1-0.1-0.1-0.2c0-0.3,0.1-0.5,0.3-0.5c0.7-0.1,1.2-0.2,1.6-0.3c0.4-0.1,0.7-0.3,0.8-0.5
			c0.2-0.2,0.4-0.7,0.5-1.4l2.9-12.3c0.1-0.5,0.2-0.8,0.2-0.9c0-0.4-0.2-0.7-0.5-0.9c-0.3-0.2-0.9-0.3-1.8-0.5
			c-0.1,0-0.1-0.1-0.1-0.2c0-0.1,0-0.2,0.1-0.4c0.1-0.1,0.1-0.2,0.2-0.2c0.6,0,1.2,0,1.9,0.1c0.6,0,1.2,0.1,1.7,0.1
			c0.5,0,1.1,0,1.8-0.1c0.7-0.1,1.3-0.1,1.9-0.1c1.5,0,2.7,0.3,3.5,1C106,7.3,106.4,8.3,106.4,9.5z M102.9,18.1
			c0-1.3-0.3-2.3-0.9-2.9c-0.6-0.6-1.5-0.9-2.9-0.9h-1.6L96,20.8c-0.1,0.3-0.1,0.6-0.1,0.8c0,0.4,0.2,0.8,0.5,1
			c0.3,0.2,0.9,0.3,1.6,0.3c1.5,0,2.6-0.4,3.5-1.3C102.5,20.6,102.9,19.5,102.9,18.1z M103.8,9.3c0-1-0.2-1.7-0.6-2.2
			c-0.4-0.5-1-0.7-1.9-0.7H101c-1.1,0-1.7,0.5-1.9,1.4l-1.3,5.7h1.9c1.3,0,2.4-0.4,3.1-1.1C103.4,11.7,103.8,10.7,103.8,9.3z"/>
		<path fill="#FFFFFF" d="M117.3,12.8c0,1.3-0.7,3.6-2.2,6.8c-1.5,3.2-3,5.9-4.7,8c-1.6,2.1-3,3.2-4.1,3.2c-0.4,0-0.8-0.1-1.2-0.4
			c-0.3-0.3-0.5-0.6-0.5-0.9c0-0.3,0.1-0.6,0.3-0.8c0.2-0.2,0.5-0.3,0.8-0.3c0.2,0,0.5,0.1,0.7,0.3c0.3,0.3,0.7,0.4,1,0.4
			c0.4,0,0.9-0.4,1.5-1.1c0.6-0.7,1.1-1.6,1.4-2.6c0.3-1,0.5-2.2,0.5-3.5c0-2.3-0.1-4.2-0.4-5.6c-0.3-1.5-0.6-2.2-1-2.2
			c-0.4,0-0.9,0.6-1.4,1.7c-0.2,0.5-0.4,0.7-0.4,0.7c-0.1,0-0.2-0.1-0.3-0.2c-0.1-0.1-0.1-0.2-0.1-0.3c0-0.3,0.2-0.9,0.5-1.6
			c0.4-0.7,0.8-1.3,1.2-1.8c0.4-0.5,0.8-0.7,1.2-0.7c0.9,0,1.6,0.7,2.1,2c0.5,1.3,0.8,3.2,0.8,5.6c0,1,0,1.9-0.1,2.4
			c0.8-1.3,1.4-2.7,1.8-4.1c0.5-1.4,0.8-3,1-4.9c0.1-0.7,0.3-1.1,0.7-1.1c0.3,0,0.5,0.1,0.7,0.2C117.3,12.4,117.3,12.6,117.3,12.8z"
			/>
	</g>
</g>
</svg>
