<?xml version="1.0" standalone="no"?>
<!DOCTYPE svg PUBLIC "-//W3C//DTD SVG 1.1//EN" "http://www.w3.org/Graphics/SVG/1.1/DTD/svg11.dtd" >
<svg xmlns="http://www.w3.org/2000/svg">
<metadata></metadata>
<defs>
<font id="mercurydisplay_bold_sc" horiz-adv-x="1224" >
<font-face units-per-em="2048" ascent="1638" descent="-410" />
<missing-glyph horiz-adv-x="430" />
<glyph horiz-adv-x="2048" />
<glyph horiz-adv-x="2048" />
<glyph unicode="&#xd;" horiz-adv-x="2048" />
<glyph unicode=" "  horiz-adv-x="430" />
<glyph unicode="&#x09;" horiz-adv-x="430" />
<glyph unicode="&#xa0;" horiz-adv-x="430" />
<glyph unicode="!" horiz-adv-x="544" d="M420 1155q0 -59 -20.5 -183.5t-52 -296t-46.5 -284.5h-70q-15 113 -46 285t-51.5 295.5t-20.5 183.5q0 180 153 180q154 0 154 -180zM412 115q0 -60 -43 -103t-103 -43t-102.5 43t-42.5 103t42.5 101.5t102.5 41.5t103 -41.5t43 -101.5z" />
<glyph unicode="&#x22;" horiz-adv-x="645" d="M608 1245q0 -22 -16 -59q-42 -79 -115 -174l-96 -127l-31 14l25 160q14 113 47 201q12 34 38.5 54.5t57.5 20.5q37 0 63.5 -25.5t26.5 -64.5zM340 1245q0 -31 -14 -59q-46 -82 -117 -174l-96 -127l-31 14l24 160q3 27 18.5 92.5t29.5 108.5q10 33 38.5 54t59.5 21 q36 0 62 -25.5t26 -64.5z" />
<glyph unicode="#" horiz-adv-x="1191" d="M1100 748h-246l-41 -140l-33 -123h256v-94h-282l-82 -299l-101 31l80 268h-248l-81 -299l-99 31l80 268h-211v94h238l47 156l29 107h-250v94h276l88 319l101 -31l-89 -288h248l90 319l99 -31l-86 -288h217v-94zM754 748h-250l-41 -140q-33 -123 -35 -123h252l45 156 q2 7 5 18t10 34.5t11 39t3 15.5z" />
<glyph unicode="$" horiz-adv-x="1101" d="M999 389q0 -179 -129.5 -295.5t-328.5 -124.5l-13 -172l-75 8q14 164 14 166q-92 3 -189.5 20.5t-156.5 41.5l-10 385l45 4q134 -294 317 -361l37 431q-145 60 -191 85q-146 82 -183 210q-15 50 -15 110q0 116 65.5 206.5t165 136t211.5 46.5l10 146l78 -11 q-12 -137 -12 -139q148 -11 268 -78l19 -315l-45 -6q-128 243 -250 303l-35 -400q15 -6 47 -19q49 -19 74.5 -29.5t70 -32.5t68.5 -40t55.5 -48t47.5 -61t28 -74t12 -93zM559 1206q-92 9 -146.5 -39t-54.5 -137q0 -77 45.5 -127t128.5 -88q2 25 4.5 65.5t8.5 126.5t10 143 t4 56zM768 240q0 58 -28 102.5t-67 70.5t-102 54l-26 -420q106 -4 164.5 50t58.5 143z" />
<glyph unicode="%" horiz-adv-x="1527" d="M737 942q0 -147 -95.5 -247.5t-252.5 -100.5q-154 0 -242 95t-88 249q0 146 97.5 246t253.5 100q154 0 240.5 -94t86.5 -248zM233 -8l500 651l498 664l63 -50l-499 -649l-500 -665zM1468 315q0 -147 -95.5 -247.5t-252.5 -100.5q-154 0 -241.5 95t-87.5 249 q0 147 96.5 246.5t253.5 99.5q154 0 240.5 -94t86.5 -248zM528 942q0 151 -32 221t-101 70q-66 0 -96.5 -71.5t-30.5 -225.5q0 -150 33 -220.5t100 -70.5q69 0 98 69.5t29 227.5zM999 309q0 -291 134 -291q68 0 97.5 70t29.5 227q0 151 -32.5 221t-101.5 70 q-66 0 -96.5 -71.5t-30.5 -225.5z" />
<glyph unicode="&#x26;" horiz-adv-x="1398" d="M1389 723v-29l-125 -51l-279 -377q78 -103 140.5 -148.5t131.5 -45.5q51 0 86 6l3 -33q-98 -76 -240 -76q-187 0 -334 170q-72 -80 -152 -125t-196 -45q-153 0 -267 98.5t-114 247.5q0 118 80 207t196 137l43 21q-124 148 -124 281q0 138 108 231.5t283 93.5 q83 0 149.5 -24t106 -62.5t60 -84t20.5 -91.5q0 -81 -60.5 -150.5t-185.5 -138.5l-60 -33l269 -368l145 307l-123 55v27h439zM745 1040q0 86 -40.5 136.5t-106.5 50.5q-61 0 -99 -48.5t-38 -119.5q0 -50 21.5 -98t74.5 -121l70 -99q59 63 88.5 142t29.5 157zM739 176 l-348 459l-16 -17q-88 -88 -88 -210q0 -110 79.5 -187.5t213.5 -77.5q91 0 159 33z" />
<glyph unicode="'" horiz-adv-x="378" d="M340 1245q0 -31 -14 -59q-46 -82 -117 -174l-96 -127l-31 14l24 160q3 27 18.5 92.5t29.5 108.5q10 33 38.5 54t59.5 21q36 0 62 -25.5t26 -64.5z" />
<glyph unicode="(" horiz-adv-x="743" d="M342 578q0 -210 48.5 -388t147 -311.5t238.5 -195.5l-18 -43q-133 45 -250.5 128.5t-210.5 200t-147 274.5t-54 335q0 144 35.5 275t97 235t146 190t181 145t202.5 95l18 -45q-209 -92 -321.5 -332.5t-112.5 -562.5z" />
<glyph unicode=")" horiz-adv-x="745" d="M649 578q0 -177 -54 -335t-146.5 -274.5t-210 -200t-250.5 -128.5l-19 43q140 62 238.5 195.5t147 311.5t48.5 388q0 322 -112.5 562.5t-321.5 332.5l19 45q134 -45 251 -128.5t209.5 -200t146.5 -274.5t54 -337z" />
<glyph unicode="*" horiz-adv-x="688" d="M641 848l-14 -27q-51 -33 -123 4q-58 36 -127 129l-8 -6q47 -106 47 -174q0 -74 -58 -108h-30q-56 33 -56 108q0 68 47 174l-8 6q-36 -49 -65 -78.5t-64 -50.5q-69 -37 -121 -4l-14 27q-3 60 64 102q59 33 174 45v11q-110 12 -174 47q-67 41 -64 102l14 27q57 34 121 -6 q35 -19 64 -48.5t65 -78.5l8 6q-47 103 -47 174q0 77 56 106h30q58 -30 58 -106q0 -71 -47 -174l8 -6q69 94 127 127q67 39 123 6l14 -27q0 -61 -66 -102q-61 -35 -174 -47v-11q117 -12 174 -45q66 -41 66 -102z" />
<glyph unicode="+" horiz-adv-x="1034" d="M950 569h-372v-376h-119v376h-375v117h375v371h119v-371h372v-117z" />
<glyph unicode="," horiz-adv-x="475" d="M403 57q0 -226 -288 -350l-23 29q93 81 137.5 142.5t61.5 119.5l-4 4l-41 -12q-24 -4 -37 -4q-51 0 -84 35t-33 88q0 60 42.5 103.5t103.5 43.5q76 0 120.5 -55t44.5 -144z" />
<glyph unicode="-" horiz-adv-x="665" d="M588 410h-510v165h510v-165z" />
<glyph unicode="." horiz-adv-x="425" d="M358 113q0 -60 -41.5 -103t-101.5 -43t-102.5 43t-42.5 103t42.5 101.5t102.5 41.5t101.5 -41.5t41.5 -101.5z" />
<glyph unicode="/" horiz-adv-x="731" d="M864 1483l-420 -957l-407 -958l-80 35l420 954l407 961z" />
<glyph unicode="0" horiz-adv-x="1165" d="M1106 627q0 -187 -60.5 -334.5t-183 -235.5t-289.5 -88q-131 0 -231 50.5t-161.5 140.5t-92.5 208t-31 259q0 188 60.5 335.5t182.5 235.5t288 88q131 0 232 -50.5t162.5 -140.5t92.5 -208t31 -260zM813 627q0 302 -69.5 447t-178.5 145q-47 0 -83.5 -26t-67.5 -89 t-47.5 -183.5t-16.5 -293.5q0 -140 13.5 -245t35.5 -170t54.5 -105t67 -55t77.5 -15q45 0 83 33t68 101.5t47 184.5t17 271z" />
<glyph unicode="1" horiz-adv-x="796" d="M543 125l215 -92v-33h-690v33l215 92v946l-217 109v24l469 68l8 -6v-1141z" />
<glyph unicode="2" horiz-adv-x="1036" d="M625 831q0 114 -64.5 182t-173.5 68q-149 0 -287 -110l-20 24q72 137 178 214t242 77q97 0 174 -31.5t124.5 -85.5t72 -121t24.5 -143q0 -154 -135.5 -310.5t-440.5 -350.5l5 -13h462l146 185l26 -6l-67 -410h-864l-11 57q252 201 392 357q217 240 217 417z" />
<glyph unicode="3" horiz-adv-x="1011" d="M920 360q0 -121 -64 -211.5t-167.5 -135t-229.5 -44.5q-186 0 -301 69t-115 171q0 69 44.5 111t105.5 42q53 0 89 -23t50.5 -61t18 -86.5t-8.5 -99.5q50 -47 131 -47q85 0 144 61t59 156q0 42 -11 81.5t-40 83.5t-74.5 79t-120.5 63.5t-172 42.5v25q202 68 285.5 139.5 t83.5 153.5q0 66 -54.5 111.5t-156.5 45.5q-126 0 -291 -73l-19 22q78 116 195 183t244 67q158 0 242.5 -74.5t84.5 -181.5q0 -99 -61 -171t-201 -124v-14q110 -27 181.5 -84.5t100 -126t28.5 -150.5z" />
<glyph unicode="4" horiz-adv-x="1095" d="M1018 330h-195v-205l213 -92v-33h-696v33l217 92v205h-516l-16 37l763 917l35 -12v-760h195v-182zM557 512v399h-4l-328 -399h332z" />
<glyph unicode="5" horiz-adv-x="1032" d="M938 412q0 -187 -130.5 -315t-338.5 -128q-183 0 -290 68.5t-107 171.5q0 69 44 111t105 42q53 0 89 -23t51 -61t18 -86.5t-10 -99.5q44 -47 120 -47q81 0 143 72.5t62 195.5q0 127 -84 204t-245 77q-89 0 -197 -31l-35 8l70 682h579l78 101l29 -8l-31 -328h-590 l-22 -221l8 -4q115 14 192 14q131 0 228 -30t153.5 -84.5t83.5 -124t27 -156.5z" />
<glyph unicode="6" horiz-adv-x="1101" d="M1020 440q0 -131 -57.5 -238t-166 -170t-247.5 -63q-95 0 -178.5 30t-150 88t-105.5 154.5t-39 219.5q0 159 62 308t186 269q108 103 245.5 166.5t317.5 104.5l10 -47q-196 -85 -317 -197q-68 -64 -109.5 -135t-77.5 -176l8 -4q106 67 236 67q121 0 210 -55.5t131 -139.5 t42 -182zM758 352q0 359 -248 359q-66 0 -139 -37q-27 -89 -27 -228q0 -171 61 -290t168 -119q185 0 185 315z" />
<glyph unicode="7" horiz-adv-x="995" d="M770 1012h-565l-103 -121l-22 6l55 416l23 8l43 -68h745l17 -20l-547 -1264h-264l301 500z" />
<glyph unicode="8" horiz-adv-x="1040" d="M915 1004q0 -94 -63 -165t-199 -124q157 -80 231 -170t74 -211q0 -148 -125.5 -256.5t-326.5 -108.5q-198 0 -308 86.5t-110 218.5q0 104 69.5 188.5t196.5 133.5q-116 67 -173.5 152t-57.5 198q0 150 115 245t299 95q179 0 278.5 -84t99.5 -198zM358 1036 q0 -84 63.5 -155.5t180.5 -137.5q59 71 83 127.5t24 130.5q0 92 -49.5 155t-135.5 63q-73 0 -119.5 -47.5t-46.5 -135.5zM702 231q0 90 -74 180.5t-229 159.5q-88 -130 -88 -266q0 -115 59.5 -191.5t164.5 -76.5q75 0 121 55.5t46 138.5z" />
<glyph unicode="9" horiz-adv-x="1091" d="M1016 795q0 -160 -62 -310t-186 -268q-110 -105 -250.5 -168.5t-331.5 -101.5l-10 45q210 80 336 196q67 63 111 143t82 189l-9 4q-89 -67 -219 -67q-178 0 -290.5 102.5t-112.5 269.5q0 124 57 228t165 166.5t247 62.5q212 0 342.5 -130.5t130.5 -360.5zM745 809 q0 178 -58.5 294t-158.5 116q-96 0 -144 -82.5t-48 -233.5q0 -340 260 -340q35 0 61 8t66 29q22 65 22 209z" />
<glyph unicode=":" horiz-adv-x="425" d="M358 739q0 -61 -41.5 -103t-101.5 -42t-102.5 42t-42.5 103q0 60 42.5 102t102.5 42t101.5 -42t41.5 -102zM358 113q0 -60 -41.5 -103t-101.5 -43t-102.5 43t-42.5 103t42.5 101.5t102.5 41.5t101.5 -41.5t41.5 -101.5z" />
<glyph unicode=";" horiz-adv-x="475" d="M401 739q0 -61 -42.5 -103t-102.5 -42t-102.5 42t-42.5 103q0 60 42.5 102t102.5 42t102.5 -42t42.5 -102zM403 57q0 -226 -288 -350l-23 29q93 81 137.5 142.5t61.5 119.5l-4 4l-41 -12q-24 -4 -37 -4q-51 0 -84 35t-33 88q0 60 42.5 103.5t103.5 43.5q76 0 120.5 -55 t44.5 -144z" />
<glyph unicode="&#x3c;" horiz-adv-x="1034" d="M870 340l-24 -109l-692 359v76l692 362l24 -110l-573 -291z" />
<glyph unicode="=" horiz-adv-x="1034" d="M950 872v-114h-866v114h866zM950 379h-866v117h866v-117z" />
<glyph unicode="&#x3e;" horiz-adv-x="1034" d="M164 918l24 108l693 -358v-76l-693 -363l-24 111l573 291z" />
<glyph unicode="?" horiz-adv-x="878" d="M813 1022q0 -97 -56.5 -170.5t-172.5 -134.5q-106 -56 -148.5 -96t-42.5 -86q0 -40 32.5 -68.5t78.5 -28.5q42 0 92 6l6 -20q-74 -64 -186 -64q-104 0 -170 58t-66 149q0 84 58.5 154t183.5 147q91 57 129.5 108.5t38.5 123.5q0 70 -49.5 116t-122.5 46q-71 0 -127 -39 q37 -72 37 -138q0 -65 -39 -107t-101 -42q-61 0 -104 42.5t-43 108.5q0 110 115.5 179t275.5 69q168 0 274.5 -88.5t106.5 -224.5zM539 115q0 -60 -43 -103t-103 -43t-102.5 43t-42.5 103t42.5 101.5t102.5 41.5t103 -41.5t43 -101.5z" />
<glyph unicode="@" horiz-adv-x="1697" d="M1452 596q0 116 -33 217.5t-98 183.5t-174.5 129.5t-251.5 47.5q-133 0 -250.5 -54t-203.5 -147.5t-135.5 -228t-49.5 -289.5q0 -133 35.5 -244t98 -189t147.5 -132t183.5 -79.5t207.5 -25.5q248 0 465 121l22 -33q-117 -97 -264 -149t-301 -52q-121 0 -233 28t-211 86.5 t-172 142t-115.5 202.5t-42.5 260q0 176 71.5 335.5t190.5 273t280 180.5t334 67q157 0 286 -50.5t211.5 -134.5t127.5 -191.5t45 -223.5q0 -85 -21.5 -168.5t-65 -157t-103 -130t-141 -89t-173.5 -32.5q-184 0 -198 139l-11 4q-52 -70 -100.5 -100.5t-118.5 -30.5 q-96 0 -154.5 67.5t-58.5 180.5q0 89 42.5 182.5t110.5 166.5t158 120t179 47q74 0 131 -31l102 39l14 -4l-88 -531q-12 -68 7 -111.5t79 -43.5q100 0 170 120.5t70 311.5zM985 664q-54 88 -125 88q-43 0 -77.5 -40t-54 -100.5t-30 -122.5t-10.5 -114q0 -158 113 -158 q31 0 55 11t64 42z" />
<glyph unicode="A" horiz-adv-x="1312" d="M1174 94l163 -59v-35h-647v35l162 49l-123 356h-364l-119 -344l137 -61v-35h-418v35l139 67l484 1215h129zM705 514l-156 447h-4l-154 -447h314z" />
<glyph unicode="B" horiz-adv-x="1337" d="M1253 365q0 -75 -27.5 -139t-83.5 -115.5t-152 -81t-222 -29.5h-711v35l179 49v1137l-179 49v35h658q246 0 365.5 -80.5t119.5 -206.5q0 -255 -369 -320v-10q105 -8 188 -38.5t133 -75.5t75.5 -98t25.5 -111zM543 711l108 4q112 5 178 73.5t66 192.5q0 122 -67 187 t-177 67l-108 2v-526zM918 358q0 131 -76 209t-209 78h-90v-565q68 -14 141 -14q114 0 174 75.5t60 216.5z" />
<glyph unicode="C" horiz-adv-x="1372" d="M1276 391l-43 -340q-106 -42 -205.5 -62t-232.5 -20q-319 0 -511 181t-192 489q0 141 54 268.5t148 222t229 150t290 55.5q81 0 169 -17t144 -46l70 69h29l28 -495l-51 -4q-76 192 -189 303.5t-237 111.5q-69 0 -129 -32t-109.5 -98.5t-78.5 -182.5t-29 -270 q0 -287 113 -452t311 -165q64 0 147 19l244 323z" />
<glyph unicode="D" horiz-adv-x="1511" d="M236 1221l-179 49v35h631q175 0 315.5 -50t230.5 -138t137.5 -206.5t47.5 -257.5t-52 -258.5t-146.5 -207t-235.5 -137.5t-311 -50h-617v35l179 49v1137zM1081 653q0 149 -31.5 258.5t-90.5 176t-136.5 100t-177.5 39.5l-102 6v-1159l149 8q189 9 289 143t100 428z" />
<glyph unicode="E" horiz-adv-x="1335" d="M1167 1305l29 -441l-39 -10l-160 225q-58 82 -111.5 113t-156.5 35l-186 8v-543h69q87 0 131 36t80 132l25 68h43v-551h-43l-25 63q-37 97 -81 132.5t-130 35.5h-69v-536l252 12q83 4 139.5 36t109.5 99l166 213l39 -8l-39 -424h-1153v35l179 49v1137l-179 49v35h1110z " />
<glyph unicode="F" horiz-adv-x="1269" d="M1198 864l-39 -10l-162 225q-58 82 -110.5 113t-155.5 35l-188 8v-576h71q97 0 139.5 35t77.5 133l25 70h43v-551h-45l-23 64q-35 98 -77.5 133t-139.5 35h-71v-494l190 -49v-35h-674v35l177 49v1137l-177 49v35h1110z" />
<glyph unicode="G" horiz-adv-x="1445" d="M1266 846l-52 -4q-204 415 -438 415q-70 0 -130.5 -32t-109.5 -98.5t-77.5 -182.5t-28.5 -270q0 -125 24.5 -226t66.5 -168t100.5 -112t124 -64.5t139.5 -19.5q48 0 106 10v418l-164 51v33h584v-33l-125 -51v-522l-33 -8l-176 100q-167 -113 -346 -113 q-132 0 -249.5 49.5t-203.5 137t-136 213t-50 270.5q0 141 54 268.5t148 222t229 150t290 55.5q83 0 173.5 -17t146.5 -46l69 69h43z" />
<glyph unicode="H" horiz-adv-x="1609" d="M1067 723v498l-152 49v35h637v-35l-178 -49v-1137l178 -49v-35h-637v35l152 49v547h-524v-547l151 -49v-35h-637v35l179 49v1137l-179 49v35h637v-35l-151 -49v-498h524z" />
<glyph unicode="I" horiz-adv-x="819" d="M563 84l176 -49v-35h-661v35l178 49v1137l-178 49v35h661v-35l-176 -49v-1137z" />
<glyph unicode="J" horiz-adv-x="1093" d="M879 463q0 -130 -26 -213.5t-89 -151.5q-54 -57 -167.5 -96t-240.5 -39q-169 0 -253.5 63t-84.5 160q0 72 48 123t112 51q102 0 150.5 -83t36.5 -236q116 37 161 109t45 221v850l-178 49v35h658v-35l-172 -49v-758z" />
<glyph unicode="K" horiz-adv-x="1468" d="M858 782l461 -676l149 -71v-35h-596v35l95 51l-318 512h-106v-514l151 -49v-35h-637v35l179 49v1137l-179 49v35h637v-35l-151 -49v-529h125l366 488l-143 90v35h520v-35l-176 -74z" />
<glyph unicode="L" horiz-adv-x="1247" d="M1184 444l-47 -444h-1080v35l179 49v1137l-179 49v35h664v-35l-178 -49v-1149l182 8q83 4 140.5 37.5t109.5 101.5l174 232z" />
<glyph unicode="M" horiz-adv-x="1865" d="M1628 84l176 -49v-35h-637v35l154 49v1079h-14l-441 -1163h-57l-467 1163h-14v-1061l174 -67v-35h-436v35l176 67v1115l-176 53v35h555l79 -211l244 -660h10l244 660l78 211h528v-35l-176 -49v-1137z" />
<glyph unicode="N" horiz-adv-x="1525" d="M246 109v1093l-162 68v35h424l166 -209l524 -643h14v743l-174 74v35h437v-35l-175 -74v-1208h-114l-168 209l-670 807h-14v-895l174 -74v-35h-436v35z" />
<glyph unicode="O" horiz-adv-x="1499" d="M1407 653q0 -140 -44.5 -263.5t-127 -217.5t-210 -148.5t-282.5 -54.5q-162 0 -288.5 54.5t-204.5 149t-118 216.5t-40 264q0 139 44.5 262t127 217t210 148.5t282.5 54.5q131 0 239 -35.5t183.5 -98t127.5 -149t76.5 -187t24.5 -212.5zM1071 653q0 301 -90.5 459 t-247.5 158q-73 0 -127.5 -32t-95 -103t-61.5 -191.5t-21 -290.5t23.5 -291t69 -191.5t105.5 -102t140 -31.5q144 0 224.5 157t80.5 459z" />
<glyph unicode="P" horiz-adv-x="1292" d="M1233 922q0 -77 -33 -148t-93 -126t-151 -87.5t-200 -32.5q-88 0 -213 19v-463l202 -49v-35h-688v35l179 49v1137l-179 49v35h682q130 0 228 -31t154.5 -85.5t84 -121.5t27.5 -145zM915 922q0 138 -63.5 221t-179.5 86l-129 4v-615l129 5q117 3 180 82.5t63 216.5z" />
<glyph unicode="Q" horiz-adv-x="1499" d="M1407 653q0 -239 -123.5 -419.5t-345.5 -239.5q92 -160 172 -217q103 -71 240 -99l-9 -30h-233q-116 0 -188 14.5t-119 52.5q-30 24 -59 66t-72 127l-35 67q-135 17 -240 77.5t-170.5 152t-99 205t-33.5 243.5q0 139 44.5 262t127 217t210 148.5t282.5 54.5 q131 0 239 -35.5t183.5 -98t127.5 -149t76.5 -187t24.5 -212.5zM1071 653q0 301 -90.5 459t-247.5 158q-73 0 -127.5 -32t-95 -103t-61.5 -191.5t-21 -290.5t23.5 -291t69 -191.5t105.5 -102t140 -31.5q144 0 224.5 157t80.5 459z" />
<glyph unicode="R" horiz-adv-x="1398" d="M1253 985q0 -126 -96 -219.5t-291 -124.5v-10q133 -21 204 -82t106 -164q66 -197 124 -268q50 -58 119 -82v-35h-248q-80 0 -129 23.5t-79.5 69t-67.5 136.5l-84 211q-33 84 -88.5 116t-157.5 32h-22v-504l176 -49v-35h-662v35l179 49v1137l-179 49v35h772 q205 0 314.5 -94t109.5 -226zM940 942q0 131 -76 207.5t-194 79.5l-127 4v-576l127 5q119 3 194.5 76.5t75.5 203.5z" />
<glyph unicode="S" horiz-adv-x="1114" d="M1030 406q0 -189 -136 -313t-331 -124q-161 0 -321 78l-76 -72h-41l-27 461l54 4q59 -137 135 -228t147.5 -128t143.5 -37q104 0 160.5 58t56.5 145q0 90 -47.5 142t-186.5 110q-5 2 -87 34t-120 50q-108 55 -168.5 145t-60.5 201q0 110 61 204t159 146.5t208 52.5 q83 0 140.5 -17.5t121.5 -51.5l78 69h41l35 -411l-51 -6q-83 165 -175 252t-188 87q-89 0 -138.5 -49t-49.5 -129q0 -77 39 -130.5t143 -100.5q32 -15 112 -45.5t121 -50.5q248 -120 248 -346z" />
<glyph unicode="T" horiz-adv-x="1394" d="M1346 848l-46 -10l-186 252q-59 80 -106.5 108.5t-126.5 34.5l-27 2v-1151l184 -49v-35h-676v35l185 49v1151l-35 -2q-77 -5 -124.5 -33.5t-106.5 -109.5l-189 -252l-43 10l57 457h1182z" />
<glyph unicode="U" horiz-adv-x="1462" d="M1178 1202l-148 68v35h385v-35l-149 -68v-772q0 -218 -136.5 -339.5t-361.5 -121.5q-265 0 -409 124t-144 374v754l-176 49v35h661v-35l-178 -49v-795q0 -332 328 -332q157 0 242.5 93t85.5 262v753z" />
<glyph unicode="V" horiz-adv-x="1374" d="M1253 1202l-510 -1214h-75l-498 1222l-164 60v35h649v-35l-161 -49l317 -863l301 832l-137 80v35h403v-35z" />
<glyph unicode="W" horiz-adv-x="1923" d="M1198 1221l246 -818h4l215 787l-135 80v35h401v-35l-125 -68l-420 -1214h-71l-326 909h-4l-358 -909h-72l-387 1222l-164 60v35h629v-35l-142 -49l211 -828h5l237 635l-55 182l-125 60v35h586v-35z" />
<glyph unicode="X" horiz-adv-x="1441" d="M1229 1214q-383 -487 -383 -489l428 -643l147 -47v-35h-643v35l150 43l-271 436l-268 -424l129 -55v-35h-469v35l166 55l391 498l-409 635l-148 47v35h641v-35l-147 -41l250 -424l264 409l-131 56v35h477v-35z" />
<glyph unicode="Y" horiz-adv-x="1304" d="M1194 1202l-367 -581v-523l185 -63v-35h-674v35l182 63v457l-373 643l-153 72v35h647v-35l-152 -62l285 -510l248 498l-123 74v35h432v-35z" />
<glyph unicode="Z" horiz-adv-x="1290" d="M1208 457l-32 -457h-1115l-8 20l801 1199l-283 -7q-80 -2 -139 -37.5t-137 -130.5l-131 -157l-37 10l35 408h1052l9 -21l-793 -1202l348 6q79 1 133 39t113 121l154 217z" />
<glyph unicode="[" horiz-adv-x="661" d="M780 1440h-342v-1723h342v-77h-573v1878h573v-78z" />
<glyph unicode="\" horiz-adv-x="731" d="M59 1518l408 -961l420 -954l-80 -35l-408 958l-419 957z" />
<glyph unicode="]" horiz-adv-x="661" d="M223 1440h-342v78h574v-1878h-574v77h342v1723z" />
<glyph unicode="^" horiz-adv-x="653" d="M326 1190l-263 -152l-30 27l278 375h43l264 -375l-30 -27z" />
<glyph unicode="_" horiz-adv-x="901" d="M901 92v-92h-901v92h901z" />
<glyph unicode="`" horiz-adv-x="487" d="M414 1051l-27 -19q-104 83 -170 141t-106 111q-36 48 -30.5 98t48.5 78q41 27 91.5 10.5t76.5 -65.5q60 -109 117 -354z" />
<glyph unicode="a" horiz-adv-x="1099" d="M293 301l-74 -209l125 -61v-31h-375v31l135 67l385 934h129l373 -952l119 -49v-31h-528v27l120 49l-84 225h-325zM592 373l-139 372h-4l-132 -372h275z" />
<glyph unicode="b" horiz-adv-x="1128" d="M1055 276q0 -118 -101.5 -197t-302.5 -79h-598v33l140 45v862l-140 45v33h561q400 0 400 -230q0 -103 -74 -164.5t-238 -82.5v-11q163 -6 258 -80t95 -174zM469 553l82 4q93 5 143.5 57.5t50.5 145.5q0 97 -48 142t-138 50l-90 4v-403zM762 274q0 101 -60.5 160.5 t-164.5 59.5h-68v-426q61 -7 102 -7q96 0 143.5 49t47.5 164z" />
<glyph unicode="c" horiz-adv-x="1122" d="M1040 342l-39 -313q-130 -60 -305 -60q-82 0 -155.5 11t-145 34.5t-128.5 65t-101 98t-68 138t-24 180.5q0 113 43 214.5t118 176.5t184.5 118.5t235.5 43.5q65 0 134.5 -16.5t119.5 -43.5l58 62h24l31 -406l-43 -4q-95 173 -177.5 254.5t-170.5 81.5q-110 0 -184 -113 t-74 -338q0 -246 96.5 -363.5t257.5 -117.5q36 0 64 8l219 297z" />
<glyph unicode="d" d="M193 940l-140 45v33h518q283 0 436.5 -136.5t153.5 -367.5q0 -233 -160 -373.5t-438 -140.5h-510v33l140 45v862zM860 510q0 215 -82.5 321.5t-224.5 116.5l-84 6v-888l115 6q129 6 202.5 113t73.5 325z" />
<glyph unicode="e" horiz-adv-x="1114" d="M985 1018l23 -350l-35 -11l-125 170q-44 61 -91 89.5t-124 31.5l-164 6v-405h78q64 0 98 27t62 100l18 49h39v-432h-39l-20 49q-31 73 -63.5 99t-94.5 26h-78v-401l205 10q122 6 200 106l132 168l34 -10l-30 -340h-957v33l140 45v862l-140 45v33h932z" />
<glyph unicode="f" horiz-adv-x="1050" d="M1006 657l-35 -10l-127 180q-42 61 -89.5 89.5t-125.5 31.5l-160 6v-428h84q62 0 97.5 28.5t62.5 98.5l18 49h39v-432h-39l-20 49q-31 73 -63.5 99t-94.5 26h-84v-366l152 -45v-33h-568v33l140 45v862l-140 45v33h930z" />
<glyph unicode="g" horiz-adv-x="1175" d="M1028 657l-43 -4q-92 162 -177 243t-177 81q-53 0 -97.5 -24t-81.5 -75t-58 -140t-21 -208q0 -128 27 -221.5t75 -145.5t105.5 -76t126.5 -24q16 0 77 9v327l-135 47v31h488v-31l-95 -47v-413l-28 -9l-154 82q-130 -90 -289 -90q-77 0 -149.5 21.5t-135.5 65t-110 104.5 t-74.5 145.5t-27.5 183.5q0 243 162.5 401.5t418.5 158.5q147 0 260 -60l60 62h33z" />
<glyph unicode="h" horiz-adv-x="1337" d="M868 567v375l-129 43v33h545v-33l-139 -45v-862l139 -45v-33h-545v33l129 43v411h-399v-411l129 -43v-33h-545v33l140 45v862l-140 45v33h545v-33l-129 -43v-375h399z" />
<glyph unicode="i" horiz-adv-x="694" d="M485 78l140 -45v-33h-555v33l139 45v862l-139 45v33h555v-33l-140 -45v-862z" />
<glyph unicode="j" horiz-adv-x="921" d="M750 393q0 -109 -22 -180t-77 -129q-48 -52 -138 -84.5t-216 -32.5q-137 0 -211 55t-74 136q0 63 42 106t102 43q82 0 121.5 -73t27.5 -201q88 14 130 74.5t42 177.5v647l-149 41v45h555v-45l-133 -41v-539z" />
<glyph unicode="k" horiz-adv-x="1226" d="M733 629l387 -541l109 -55v-33h-520v33l100 39l-260 395h-80v-391l125 -43v-33h-541v33l140 45v862l-140 45v33h541v-33l-125 -43v-395h96l291 362l-133 76v33h455v-45l-156 -53z" />
<glyph unicode="l" horiz-adv-x="1032" d="M983 381l-41 -381h-889v33l140 45v862l-140 45v33h570v-33l-154 -43v-876l127 4q69 3 116 29.5t87 80.5l153 205z" />
<glyph unicode="m" horiz-adv-x="1552" d="M1360 78l139 -45v-33h-543v33l129 43v805h-14l-344 -883h-61l-369 883h-14v-787l141 -61v-33h-367v33l142 61v842l-142 49v33h482l65 -160l184 -479h11l180 479l57 160h463v-33l-139 -45v-862z" />
<glyph unicode="n" horiz-adv-x="1269" d="M205 100v824l-135 61v33h362l137 -168l410 -494h12v562l-143 67v33h364v-33l-143 -67v-930h-127l-151 184l-496 580h-12v-652l141 -69v-31h-363v31z" />
<glyph unicode="o" d="M1151 510q0 -111 -34.5 -207.5t-100.5 -171.5t-170.5 -118.5t-235.5 -43.5q-138 0 -243 43t-168 119t-94 171.5t-31 207.5q0 110 35 206.5t101 171t171 118t237 43.5q137 0 241.5 -43t167 -118.5t93.5 -170.5t31 -207zM852 510q0 237 -67 357t-185 120 q-72 0 -120.5 -43.5t-77.5 -151.5t-29 -282q0 -133 18 -227t52.5 -148t78.5 -78t103 -24q106 0 166.5 121t60.5 356z" />
<glyph unicode="p" horiz-adv-x="1060" d="M1018 715q0 -141 -106.5 -228.5t-286.5 -87.5q-70 0 -156 11v-334l170 -43v-33h-586v33l140 45v862l-140 45v33h563q196 0 299 -83.5t103 -219.5zM733 711q0 232 -186 241l-78 4v-489l72 2q93 3 142.5 67t49.5 175z" />
<glyph unicode="q" d="M1151 510q0 -189 -96.5 -330.5t-276.5 -189.5q66 -109 127 -148q75 -53 193 -75l-8 -33h-216q-99 0 -154.5 11t-92.5 42q-47 37 -97 137l-26 51q-110 16 -194.5 64.5t-135 121.5t-75.5 160.5t-25 188.5q0 110 35 206.5t101 171t171 118t237 43.5q137 0 241.5 -43 t167 -118.5t93.5 -170.5t31 -207zM852 510q0 237 -67 357t-185 120q-72 0 -120.5 -43.5t-77.5 -151.5t-29 -282q0 -133 18 -227t52.5 -148t78.5 -78t103 -24q106 0 166.5 121t60.5 356z" />
<glyph unicode="r" horiz-adv-x="1157" d="M1040 768q0 -226 -319 -270v-11q114 -14 172.5 -59t87.5 -127q52 -150 92 -201q34 -42 103 -65v-35h-232q-87 0 -130 38t-81 138l-61 158q-26 66 -67.5 91.5t-119.5 25.5h-16v-373l139 -45v-33h-555v33l140 45v862l-140 45v33h635q179 0 265.5 -68t86.5 -182zM760 733 q0 208 -201 217l-90 4v-442l86 4q92 3 148.5 58t56.5 159z" />
<glyph unicode="s" horiz-adv-x="946" d="M870 324q0 -157 -111.5 -255t-271.5 -98q-152 0 -282 54l-64 -60h-39l-20 385l45 4q98 -170 186 -242.5t176 -72.5q82 0 128.5 41t46.5 110t-40 106t-149 79q-18 7 -53.5 18.5t-66 23t-54.5 23.5q-107 50 -152 115t-45 162q0 140 107 235t246 95q125 0 239 -50l64 54h39 l28 -355l-43 -4q-99 158 -171 222.5t-156 64.5q-63 0 -100.5 -37.5t-37.5 -95.5q0 -62 32.5 -100t113.5 -74q29 -13 94.5 -36t97.5 -38q117 -51 165 -113t48 -161z" />
<glyph unicode="t" horiz-adv-x="1136" d="M1092 633l-37 -8l-158 211q-45 62 -82 88.5t-82 29.5l-28 2v-878l145 -45v-33h-567v33l145 45v878l-27 -2q-44 -3 -79.5 -29t-81.5 -89l-158 -211l-37 8l41 387h965z" />
<glyph unicode="u" d="M975 922l-125 63v33h336v-33l-127 -63v-562q0 -189 -116 -290t-304 -101q-217 0 -336 101.5t-119 310.5v559l-139 45v33h555v-33l-139 -45v-586q0 -274 260 -274q121 0 187.5 76.5t66.5 218.5v547z" />
<glyph unicode="v" horiz-adv-x="1146" d="M1026 918l-403 -932h-86l-406 950l-129 49v33h555v-33l-129 -45l254 -635l229 606l-131 72v35h379v-35z" />
<glyph unicode="w" horiz-adv-x="1622" d="M784 791l-51 145l-98 49v33h500v-33l-121 -45l194 -602h4l168 573l-133 72v35h379v-35l-125 -65l-334 -932h-94l-248 692h-4l-270 -692h-90l-322 950l-129 49v33h535v-33l-113 -45l172 -602h4z" />
<glyph unicode="x" horiz-adv-x="1165" d="M645 631l203 307l-115 47v33h397v-33l-145 -47l-287 -369l338 -495l119 -41v-33h-551v33l121 37l-203 333l-215 -323l115 -47v-33h-393v33l141 47l299 377l-322 487l-118 41v33h549v-33l-119 -35z" />
<glyph unicode="y" horiz-adv-x="1097" d="M981 926l-276 -469v-367l145 -57v-33h-565v33l143 57v320l-293 512l-125 63v33h553v-33l-125 -53l219 -410l197 400l-121 63v33h377v-33z" />
<glyph unicode="z" horiz-adv-x="1071" d="M997 391l-24 -391h-926l-8 18l647 922l-213 -2q-69 0 -112 -26.5t-109 -108.5l-121 -150l-27 6l29 359h881l8 -19l-643 -923l262 4q69 1 108.5 30t88.5 99l133 188z" />
<glyph unicode="{" horiz-adv-x="692" d="M510 963q0 -324 -283 -377v-4q283 -50 283 -375v-215q0 -140 49.5 -204t181.5 -95v-53q-126 13 -208.5 34.5t-145.5 62.5t-91 106.5t-28 162.5v268q0 153 -49 211.5t-196 75.5v47q147 17 196 75.5t49 211.5v256q0 78 19.5 135.5t55 97t95.5 66.5t131.5 42.5t171.5 25.5 v-54q-132 -31 -181.5 -95.5t-49.5 -205.5v-200z" />
<glyph unicode="|" horiz-adv-x="552" d="M326 -494h-99l6 965l-6 965h99l-7 -965z" />
<glyph unicode="}" horiz-adv-x="692" d="M424 895q0 -152 49 -211t197 -76v-47q-148 -17 -197 -76t-49 -211v-268q0 -97 -28 -162.5t-91 -106.5t-145.5 -62.5t-208.5 -34.5v53q132 31 181.5 95t49.5 204v215q0 325 283 375v4q-283 53 -283 377v200q0 141 -49.5 205.5t-181.5 95.5v54q100 -10 171.5 -25.5 t131.5 -42.5t95.5 -66.5t55 -97t19.5 -135.5v-256z" />
<glyph unicode="~" horiz-adv-x="739" d="M260 772q54 0 143 -36t125 -36q63 0 97 84l39 -10q-14 -229 -177 -229q-55 0 -147 36.5t-129 36.5q-31 0 -53.5 -20t-40.5 -66l-41 13q19 115 63.5 171t120.5 56z" />
<glyph unicode="&#xa1;" horiz-adv-x="544" d="M412 737q0 -60 -43 -101.5t-103 -41.5t-102.5 41.5t-42.5 101.5t42.5 103t102.5 43t103 -43t43 -103zM231 461h70q15 -113 46.5 -284.5t52 -296t20.5 -183.5q0 -180 -154 -180q-153 0 -153 180q0 60 20.5 183.5t51.5 295.5t46 285z" />
<glyph unicode="&#xa2;" horiz-adv-x="1036" d="M580 123q40 -12 77 -12q21 0 41.5 2t43.5 7t39.5 8.5t43.5 12.5t40 13t43.5 15t41.5 15l13 -26q-195 -177 -390 -187l-8 -168l-71 7l10 161q-187 12 -309.5 143.5t-122.5 331.5q0 136 60.5 250.5t172.5 186.5t254 80l8 135l70 -6l-8 -131q146 -7 243 -70.5t97 -149.5 q0 -64 -39 -108.5t-99 -44.5q-71 0 -110 47t-34.5 117.5t50.5 134.5q-43 8 -112 2l-29 -443zM346 506q0 -122 46.5 -214t123.5 -140l19 299l20 423q-95 -33 -152 -124.5t-57 -243.5z" />
<glyph unicode="&#xa3;" horiz-adv-x="1150" d="M903 688v-96h-276q0 -6 1 -19.5t1 -19.5q0 -204 -238 -317l4 -15q85 6 147 3.5t155.5 -8t133.5 -5.5q82 0 123 47.5t64 149.5l45 -5q-6 -213 -79.5 -323.5t-203.5 -110.5q-184 0 -415 178q-29 -77 -85.5 -127.5t-121.5 -50.5q-61 0 -92 31t-31 80q0 64 73.5 117.5 t196.5 50.5q53 80 53 219q0 63 -24 125h-268v96h229q-43 85 -43 170q0 88 41 168.5t108 136.5t153.5 89.5t174.5 33.5q84 0 147 -17.5t96.5 -46t49.5 -59.5t16 -63q0 -56 -34 -96.5t-99 -40.5q-82 0 -137 68t-70 181q-78 -27 -123 -99t-45 -181q0 -106 74 -244h299z" />
<glyph unicode="&#xa4;" horiz-adv-x="1241" d="M201 678h-156v92h168q47 237 207.5 376.5t388.5 139.5q170 0 262 -67.5t92 -163.5q0 -71 -38 -113.5t-107 -42.5q-73 0 -113.5 51t-38.5 118t41 114q-45 28 -106 28q-38 0 -76 -13.5t-77 -46t-70.5 -81.5t-55.5 -126t-33 -173h482v-92h-486v-27q0 -49 7 -110h479v-92 h-461q38 -141 130.5 -218t225.5 -77q177 0 293 51l10 -27q-70 -93 -177 -151t-234 -58q-136 0 -250.5 53.5t-195 163.5t-105.5 263h-162v92h152v45q0 30 4 92z" />
<glyph unicode="&#xa5;" horiz-adv-x="1312" d="M158 651h307l-293 496l-154 72v34h631v-34l-178 -62l246 -479l268 467l-149 74v34h456v-34l-162 -80l-327 -488h346v-92h-358v-137h358v-92h-358v-232l210 -63v-35h-694v35l209 63v232h-358v92h358v137h-358v92z" />
<glyph unicode="&#xa6;" horiz-adv-x="552" d="M326 571h-99l6 433l-6 432h99l-7 -432zM326 -494h-99l6 433l-6 432h99l-7 -432z" />
<glyph unicode="&#xa7;" horiz-adv-x="1069" d="M971 352q0 -153 -69 -280.5t-186.5 -200t-256.5 -72.5q-158 0 -261.5 75.5t-103.5 166.5q0 63 35.5 103t91.5 40q59 0 99 -38t40 -91t-30 -114q29 -32 76 -49t96 -17q88 0 161 58t105 153q-670 343 -670 735q0 153 69 280.5t186.5 200t256.5 72.5q158 0 260.5 -76 t102.5 -168q0 -62 -36 -101.5t-91 -39.5q-58 0 -98.5 37.5t-40.5 91.5q0 58 32 115q-29 32 -76 48.5t-96 16.5q-88 0 -161 -58t-105 -155q670 -345 670 -733zM281 961q0 -198 116.5 -381t386.5 -422q4 36 4 55q0 197 -117 381t-386 420q-4 -16 -4 -53z" />
<glyph unicode="&#xa8;" horiz-adv-x="739" d="M549 1081q-61 0 -101 42t-40 104q0 63 45.5 111t111.5 48q62 0 102 -41t40 -104t-46 -111.5t-112 -48.5zM158 1081q-62 0 -102 42t-40 104q0 63 45.5 111t110.5 48q63 0 102 -41t39 -104t-45 -111.5t-110 -48.5z" />
<glyph unicode="&#xa9;" horiz-adv-x="1503" d="M1436 653q0 -140 -54.5 -266.5t-146 -218t-218 -145.5t-265.5 -54t-265.5 54t-218 145.5t-146 218t-54.5 266.5q0 139 54.5 265.5t146 217.5t218 145t265.5 54t265.5 -54t218 -145t146 -217.5t54.5 -265.5zM1352 653q0 123 -47.5 235.5t-127.5 194.5t-191.5 130.5 t-233.5 48.5t-233.5 -48.5t-191.5 -130.5t-127.5 -194.5t-47.5 -235.5q0 -164 80 -304.5t218.5 -223t301.5 -82.5t301.5 82.5t218.5 223t80 304.5zM594 664q0 -149 52 -232.5t151 -83.5q40 0 69 8l131 179l27 -5l-25 -200q-101 -39 -233 -39q-172 0 -273.5 94.5 t-101.5 259.5q0 153 110 261t277 108q94 0 162 -33l27 37h28l19 -277l-39 -2q-33 98 -90 161t-115 63q-78 0 -127 -70.5t-49 -228.5z" />
<glyph unicode="&#xaa;" horiz-adv-x="780" d="M98 1141q0 61 59.5 107.5t136.5 66.5t152 20q101 0 159.5 -50.5t58.5 -145.5v-351q0 -50 18.5 -74t81.5 -30l2 -22q-100 -27 -172 -27q-111 0 -131 84l-8 2q-95 -84 -195 -84q-85 0 -135.5 43.5t-50.5 110.5q0 99 104.5 155t276.5 51v129q0 66 -32.5 100t-125.5 34h-59 q63 -51 63 -121q0 -40 -27 -69.5t-71 -29.5q-48 0 -76.5 29.5t-28.5 71.5zM293 827q0 -46 26 -73t64 -27q36 0 72 25v209q-88 -7 -125 -39.5t-37 -94.5z" />
<glyph unicode="&#xab;" horiz-adv-x="989" d="M643 459l231 -357l-47 -41l-403 388v20l403 387l47 -43zM281 459l231 -357l-47 -41l-404 388v20l404 387l47 -43z" />
<glyph unicode="&#xac;" horiz-adv-x="1034" d="M950 565h-866v125h866v-125z" />
<glyph unicode="&#xad;" horiz-adv-x="665" d="M588 410h-510v165h510v-165z" />
<glyph unicode="&#xae;" horiz-adv-x="770" d="M385 717q-133 0 -222 88.5t-89 222.5t89 222.5t222 88.5t222 -88.5t89 -222.5t-89 -222.5t-222 -88.5zM385 750q117 0 194.5 79t77.5 199t-77.5 199.5t-194.5 79.5t-194.5 -79.5t-77.5 -199.5t77.5 -199t194.5 -79zM530 1114q0 -63 -84 -78v-12q33 -4 49.5 -17.5 t22.5 -39.5q8 -32 21 -49q13 -16 41 -19v-22h-78q-30 0 -46.5 14.5t-27.5 46.5l-14 43q-6 18 -17 24.5t-32 6.5h-7v-99l45 -14v-22h-188v22l53 14v240l-53 16v23h201q55 0 84.5 -22t29.5 -56zM440 1100q0 60 -55 63l-27 2v-127h27q26 0 40.5 17.5t14.5 44.5z" />
<glyph unicode="&#xaf;" horiz-adv-x="655" d="M610 1241v-137h-565v137h565z" />
<glyph unicode="&#xb0;" horiz-adv-x="786" d="M709 1030q0 -58 -20 -112t-58.5 -98.5t-101.5 -71.5t-142 -27q-103 0 -174.5 44.5t-103 112t-31.5 150.5q0 58 20 111.5t58.5 98t102 71t142.5 26.5q153 0 230.5 -88t77.5 -217zM528 1030q0 117 -35.5 184.5t-101.5 67.5q-63 0 -98 -69t-35 -187q0 -115 36.5 -183.5 t100.5 -68.5q67 0 100 68t33 188z" />
<glyph unicode="&#xb1;" horiz-adv-x="1024" d="M51 -410v2048h922v-2048h-922z" />
<glyph unicode="&#xb2;" horiz-adv-x="1024" d="M51 -410v2048h922v-2048h-922z" />
<glyph unicode="&#xb3;" horiz-adv-x="1024" d="M51 -410v2048h922v-2048h-922z" />
<glyph unicode="&#xb4;" horiz-adv-x="487" d="M377 1460q42 -27 47 -77.5t-31 -98.5q-40 -53 -106 -111t-170 -141l-27 19q54 241 119 354q28 50 76.5 66t91.5 -11z" />
<glyph unicode="&#xb5;" horiz-adv-x="1034" d="M594 627l283 -289l-84 -80l-277 287l-276 -287l-84 80l282 289l-282 288l84 80l276 -286l277 286l84 -80z" />
<glyph unicode="&#xb6;" horiz-adv-x="1497" d="M1243 -98l227 -37v-35h-512q-210 0 -374 56.5t-270 160t-161 245.5t-55 316q0 173 59.5 316.5t170 246t275 159t368.5 56.5h499v-32l-227 -39v-1413zM940 1319v-1421l209 4v1413z" />
<glyph unicode="&#xb7;" horiz-adv-x="473" d="M381 651q0 -61 -41.5 -103t-101.5 -42t-103 42t-43 103q0 60 43 102t103 42t101.5 -42t41.5 -102z" />
<glyph unicode="&#xb8;" horiz-adv-x="577" d="M373 -332q0 -89 -70 -150t-176 -61q-76 0 -127 37t-51 86q0 35 22 58.5t54 23.5q35 0 54 -23t19 -57q0 -36 -28 -67q24 -7 49 -7q43 0 71.5 32.5t28.5 86.5q0 56 -33 88.5t-80 32.5q-41 0 -65 -8l-25 24l377 332l37 -43l-221 -192q164 -40 164 -193z" />
<glyph unicode="&#xb9;" horiz-adv-x="1024" d="M51 -410v2048h922v-2048h-922z" />
<glyph unicode="&#xba;" horiz-adv-x="790" d="M752 985q0 -67 -23.5 -128.5t-67.5 -111t-115.5 -79t-160.5 -29.5t-157 28t-108.5 77t-60.5 110.5t-20 134.5q0 91 38.5 168.5t123 128.5t202.5 51q174 0 261.5 -99t87.5 -251zM530 985q0 145 -30 222t-105 77t-106 -76.5t-31 -218.5q0 -71 6 -122.5t20.5 -93t41.5 -62.5 t67 -21q75 0 106 76t31 219z" />
<glyph unicode="&#xbb;" horiz-adv-x="989" d="M928 449l-404 -388l-47 41l232 357l-232 354l47 43l404 -387v-20zM565 449l-403 -388l-47 41l231 357l-231 354l47 43l403 -387v-20z" />
<glyph unicode="&#xbc;" horiz-adv-x="1024" d="M51 -410v2048h922v-2048h-922z" />
<glyph unicode="&#xbd;" horiz-adv-x="1024" d="M51 -410v2048h922v-2048h-922z" />
<glyph unicode="&#xbe;" horiz-adv-x="1024" d="M51 -410v2048h922v-2048h-922z" />
<glyph unicode="&#xbf;" horiz-adv-x="802" d="M596 737q0 -60 -42.5 -101.5t-102.5 -41.5t-103 41.5t-43 101.5t43 103t103 43t102.5 -43t42.5 -103zM803 -236q0 -110 -115.5 -178.5t-275.5 -68.5q-168 0 -274.5 88.5t-106.5 224.5q0 97 56.5 170.5t172.5 134.5q106 56 148.5 96t42.5 86q0 40 -32.5 68.5t-78.5 28.5 q-42 0 -92 -6l-6 20q74 64 186 64q104 0 170 -58t66 -149q0 -84 -58.5 -154t-183.5 -147q-91 -57 -129.5 -108.5t-38.5 -123.5q0 -70 49.5 -116t122.5 -46q71 0 127 39q-37 72 -37 138q0 65 38.5 107t100.5 42q61 0 104.5 -43t43.5 -109z" />
<glyph unicode="&#xc0;" horiz-adv-x="1312" d="M690 1432l-26 -19q-70 56 -111 89.5t-89.5 79.5t-76.5 83q-36 48 -30 98t49 78q41 27 91 10.5t76 -65.5q60 -109 117 -354zM1174 94l163 -59v-35h-647v35l162 49l-123 356h-364l-119 -344l137 -61v-35h-418v35l139 67l484 1215h129zM705 514l-156 447h-4l-154 -447h314z " />
<glyph unicode="&#xc1;" horiz-adv-x="1312" d="M879 1841q42 -27 47 -77.5t-31 -98.5q-28 -37 -76.5 -83t-89.5 -79.5t-111 -89.5l-26 19q54 241 119 354q28 50 76.5 66t91.5 -11zM1174 94l163 -59v-35h-647v35l162 49l-123 356h-364l-119 -344l137 -61v-35h-418v35l139 67l484 1215h129zM705 514l-156 447h-4 l-154 -447h314z" />
<glyph unicode="&#xc2;" horiz-adv-x="1312" d="M647 1530l-262 -152l-31 27l279 375h43l264 -375l-31 -27zM1178 94l163 -59v-35h-647v35l162 49l-123 356h-364l-119 -344l137 -61v-35h-418v35l140 67l483 1215h129zM709 514l-156 447h-4l-154 -447h314z" />
<glyph unicode="&#xc3;" horiz-adv-x="1312" d="M338 1454q21 137 66.5 199.5t138.5 62.5q62 0 155 -41t136 -41q69 0 108 97l45 -13q-9 -140 -52.5 -204t-137.5 -64q-63 0 -162.5 44t-142.5 44q-35 0 -61.5 -22t-47.5 -74zM1174 94l163 -59v-35h-647v35l162 49l-123 356h-364l-119 -344l137 -61v-35h-418v35l139 67 l484 1215h129zM705 514l-156 447h-4l-154 -447h314z" />
<glyph unicode="&#xc4;" horiz-adv-x="1312" d="M862 1462q-61 0 -101 42t-40 104q0 63 46 111t112 48q61 0 101 -41t40 -104t-46 -111.5t-112 -48.5zM471 1462q-62 0 -101.5 42t-39.5 104q0 63 45 111t110 48q63 0 102.5 -41t39.5 -104t-45.5 -111.5t-110.5 -48.5zM1174 94l163 -59v-35h-647v35l162 49l-123 356h-364 l-119 -344l137 -61v-35h-418v35l139 67l484 1215h129zM705 514l-156 447h-4l-154 -447h314z" />
<glyph unicode="&#xc5;" horiz-adv-x="1312" d="M1174 94l163 -59v-35h-647v35l162 49l-123 356h-364l-119 -344l137 -61v-35h-418v35l139 67l476 1196q-64 20 -99 72t-35 117q0 78 59 137t157 59q97 0 149.5 -55.5t52.5 -138.5q0 -63 -37.5 -116.5t-103.5 -74.5zM582 1485q0 -142 75 -142q41 0 56.5 36t15.5 110 q0 71 -17.5 106t-58.5 35q-38 0 -54.5 -36.5t-16.5 -108.5zM545 961l-154 -447h314l-156 447h-4z" />
<glyph unicode="&#xc6;" horiz-adv-x="1943" d="M461 492l-250 -396l137 -61v-35h-416v35l140 67l772 1119l-178 49v35h1110l28 -441l-39 -10l-161 225q-58 82 -111 113t-156 35l-186 8v-543h70q87 0 131 36t80 132l24 68h43v-551h-45l-22 63q-34 96 -79 132t-132 36h-70v-536l252 12q84 4 140.5 36t109.5 99l166 213 l39 -8l-39 -424h-1153v35l178 49v408h-383zM844 565v525h-4l-332 -525h336z" />
<glyph unicode="&#xc7;" horiz-adv-x="1372" d="M430 674q0 -287 113 -452t311 -165q72 0 147 19l244 323l31 -8l-43 -340q-170 -67 -342 -80l-131 -110q164 -40 164 -193q0 -89 -70 -150t-176 -61q-76 0 -127 37t-51 86q0 35 21.5 58.5t53.5 23.5q35 0 54.5 -23t19.5 -57q0 -36 -28 -67q25 -7 49 -7q43 0 71.5 32.5 t28.5 86.5q0 56 -33 88.5t-80 32.5q-41 0 -65 -8l-25 24l236 205q-326 0 -518.5 180t-192.5 490q0 141 54 268.5t148 222t229 150t290 55.5q81 0 169 -17t144 -46l70 69h29l28 -495l-51 -4q-76 192 -189 303.5t-237 111.5q-69 0 -129 -32t-109.5 -98.5t-78.5 -182.5 t-29 -270z" />
<glyph unicode="&#xc8;" horiz-adv-x="1335" d="M770 1432l-27 -19q-104 83 -170 141t-106 111q-36 48 -30.5 98t48.5 78q41 27 91.5 10.5t76.5 -65.5q60 -109 117 -354zM1167 1305l29 -441l-39 -10l-160 225q-58 82 -111.5 113t-156.5 35l-186 8v-543h69q87 0 131 36t80 132l25 68h43v-551h-43l-25 63q-37 97 -81 132.5 t-130 35.5h-69v-536l252 12q83 4 139.5 36t109.5 99l166 213l39 -8l-39 -424h-1153v35l179 49v1137l-179 49v35h1110z" />
<glyph unicode="&#xc9;" horiz-adv-x="1335" d="M913 1841q42 -27 47.5 -77.5t-30.5 -98.5q-28 -37 -76.5 -83t-89.5 -79.5t-111 -89.5l-26 19q55 244 118 354q28 50 76.5 66t91.5 -11zM1167 1305l29 -441l-39 -10l-160 225q-58 82 -111.5 113t-156.5 35l-186 8v-543h69q87 0 131 36t80 132l25 68h43v-551h-43l-25 63 q-37 97 -81 132.5t-130 35.5h-69v-536l252 12q83 4 139.5 36t109.5 99l166 213l39 -8l-39 -424h-1153v35l179 49v1137l-179 49v35h1110z" />
<glyph unicode="&#xca;" horiz-adv-x="1335" d="M688 1567l-262 -152l-31 27l279 375h43l264 -375l-31 -27zM1167 1305l29 -441l-39 -10l-160 225q-58 82 -111.5 113t-156.5 35l-186 8v-543h69q87 0 131 36t80 132l25 68h43v-551h-43l-25 63q-37 97 -81 132.5t-130 35.5h-69v-536l252 12q83 4 139.5 36t109.5 99l166 213 l39 -8l-39 -424h-1153v35l179 49v1137l-179 49v35h1110z" />
<glyph unicode="&#xcb;" horiz-adv-x="1335" d="M870 1462q-61 0 -101 42t-40 104q0 63 46 111t112 48q61 0 101 -41t40 -104t-46 -111.5t-112 -48.5zM479 1462q-62 0 -101.5 42t-39.5 104q0 63 45.5 111t110.5 48q63 0 102 -41t39 -104t-45.5 -111.5t-110.5 -48.5zM1167 1305l29 -441l-39 -10l-160 225 q-58 82 -111.5 113t-156.5 35l-186 8v-543h69q87 0 131 36t80 132l25 68h43v-551h-43l-25 63q-37 97 -81 132.5t-130 35.5h-69v-536l252 12q83 4 139.5 36t109.5 99l166 213l39 -8l-39 -424h-1153v35l179 49v1137l-179 49v35h1110z" />
<glyph unicode="&#xcc;" horiz-adv-x="819" d="M504 1432l-27 -19q-104 83 -170 141t-106 111q-36 48 -30.5 98t48.5 78q41 27 91.5 10.5t76.5 -65.5q60 -109 117 -354zM563 84l176 -49v-35h-661v35l178 49v1137l-178 49v35h661v-35l-176 -49v-1137z" />
<glyph unicode="&#xcd;" horiz-adv-x="819" d="M616 1841q42 -27 47.5 -77.5t-30.5 -98.5q-28 -37 -76.5 -83t-89.5 -79.5t-111 -89.5l-26 19q54 241 119 354q28 50 76 66t91 -11zM563 84l176 -49v-35h-661v35l178 49v1137l-178 49v35h661v-35l-176 -49v-1137z" />
<glyph unicode="&#xce;" horiz-adv-x="819" d="M414 1571l-262 -152l-31 27l278 375h43l265 -375l-31 -27zM563 84l176 -49v-35h-661v35l178 49v1137l-178 49v35h661v-35l-176 -49v-1137z" />
<glyph unicode="&#xcf;" horiz-adv-x="819" d="M604 1462q-61 0 -101 42t-40 104q0 63 46 111t112 48q61 0 101 -41t40 -104t-46 -111.5t-112 -48.5zM213 1462q-62 0 -101.5 42t-39.5 104q0 63 45 111t110 48q63 0 102.5 -41t39.5 -104t-45.5 -111.5t-110.5 -48.5zM563 84l176 -49v-35h-661v35l178 49v1137l-178 49v35 h661v-35l-176 -49v-1137z" />
<glyph unicode="&#xd0;" horiz-adv-x="1511" d="M1419 653q0 -139 -52 -258.5t-146.5 -207t-235.5 -137.5t-311 -50h-617v35l179 49v541h-175v92h175v504l-179 49v35h631q175 0 315.5 -50t230.5 -138t137.5 -206.5t47.5 -257.5zM1081 653q0 149 -31.5 258.5t-90.5 176t-136.5 100t-177.5 39.5l-102 6v-516h237v-92h-237 v-551l149 8q189 9 289 143t100 428z" />
<glyph unicode="&#xd1;" horiz-adv-x="1525" d="M477 1454q21 137 66.5 199.5t138.5 62.5q62 0 155 -41t136 -41q69 0 108 97l45 -13q-9 -140 -52.5 -204t-137.5 -64q-63 0 -162.5 44t-142.5 44q-35 0 -61.5 -22t-47.5 -74zM246 109v1093l-162 68v35h424l166 -209l524 -643h14v743l-174 74v35h437v-35l-175 -74v-1208 h-114l-168 209l-670 807h-14v-895l174 -74v-35h-436v35z" />
<glyph unicode="&#xd2;" horiz-adv-x="1499" d="M778 1442l-26 -19q-70 56 -111 89.5t-89.5 79.5t-76.5 83q-36 48 -30 98t49 78q41 27 91.5 10.5t76.5 -65.5q58 -106 116 -354zM1407 653q0 -140 -44.5 -263.5t-127 -217.5t-210 -148.5t-282.5 -54.5q-162 0 -288.5 54.5t-204.5 149t-118 216.5t-40 264q0 139 44.5 262 t127 217t210 148.5t282.5 54.5q131 0 239 -35.5t183.5 -98t127.5 -149t76.5 -187t24.5 -212.5zM1071 653q0 301 -90.5 459t-247.5 158q-73 0 -127.5 -32t-95 -103t-61.5 -191.5t-21 -290.5t23.5 -291t69 -191.5t105.5 -102t140 -31.5q144 0 224.5 157t80.5 459z" />
<glyph unicode="&#xd3;" horiz-adv-x="1499" d="M997 1851q42 -27 47.5 -77.5t-30.5 -98.5q-28 -37 -76.5 -83t-89.5 -79.5t-111 -89.5l-26 19q55 244 118 354q28 50 76.5 66t91.5 -11zM1407 653q0 -140 -44.5 -263.5t-127 -217.5t-210 -148.5t-282.5 -54.5q-162 0 -288.5 54.5t-204.5 149t-118 216.5t-40 264 q0 139 44.5 262t127 217t210 148.5t282.5 54.5q131 0 239 -35.5t183.5 -98t127.5 -149t76.5 -187t24.5 -212.5zM1071 653q0 301 -90.5 459t-247.5 158q-73 0 -127.5 -32t-95 -103t-61.5 -191.5t-21 -290.5t23.5 -291t69 -191.5t105.5 -102t140 -31.5q144 0 224.5 157 t80.5 459z" />
<glyph unicode="&#xd4;" horiz-adv-x="1499" d="M727 1571l-262 -152l-31 27l279 375h43l264 -375l-31 -27zM1407 653q0 -140 -44.5 -263.5t-127 -217.5t-210 -148.5t-282.5 -54.5q-162 0 -288.5 54.5t-204.5 149t-118 216.5t-40 264q0 139 44.5 262t127 217t210 148.5t282.5 54.5q131 0 239 -35.5t183.5 -98t127.5 -149 t76.5 -187t24.5 -212.5zM1071 653q0 301 -90.5 459t-247.5 158q-73 0 -127.5 -32t-95 -103t-61.5 -191.5t-21 -290.5t23.5 -291t69 -191.5t105.5 -102t140 -31.5q144 0 224.5 157t80.5 459z" />
<glyph unicode="&#xd5;" horiz-adv-x="1499" d="M422 1454q21 137 66.5 199.5t138.5 62.5q62 0 155 -41t136 -41q69 0 108 97l45 -13q-9 -140 -52.5 -204t-137.5 -64q-63 0 -163 44t-143 44q-35 0 -61 -22t-47 -74zM1407 653q0 -140 -44.5 -263.5t-127 -217.5t-210 -148.5t-282.5 -54.5q-162 0 -288.5 54.5t-204.5 149 t-118 216.5t-40 264q0 139 44.5 262t127 217t210 148.5t282.5 54.5q131 0 239 -35.5t183.5 -98t127.5 -149t76.5 -187t24.5 -212.5zM1071 653q0 301 -90.5 459t-247.5 158q-73 0 -127.5 -32t-95 -103t-61.5 -191.5t-21 -290.5t23.5 -291t69 -191.5t105.5 -102t140 -31.5 q144 0 224.5 157t80.5 459z" />
<glyph unicode="&#xd6;" horiz-adv-x="1499" d="M926 1462q-61 0 -101.5 42t-40.5 104q0 63 46 111t112 48q61 0 101 -41t40 -104t-45.5 -111.5t-111.5 -48.5zM535 1462q-62 0 -102 42t-40 104q0 63 45.5 111t110.5 48q63 0 102 -41t39 -104t-45 -111.5t-110 -48.5zM1407 653q0 -140 -44.5 -263.5t-127 -217.5 t-210 -148.5t-282.5 -54.5q-162 0 -288.5 54.5t-204.5 149t-118 216.5t-40 264q0 139 44.5 262t127 217t210 148.5t282.5 54.5q131 0 239 -35.5t183.5 -98t127.5 -149t76.5 -187t24.5 -212.5zM1071 653q0 301 -90.5 459t-247.5 158q-73 0 -127.5 -32t-95 -103t-61.5 -191.5 t-21 -290.5t23.5 -291t69 -191.5t105.5 -102t140 -31.5q144 0 224.5 157t80.5 459z" />
<glyph unicode="&#xd7;" horiz-adv-x="1034" d="M594 627l283 -289l-84 -80l-277 287l-276 -287l-84 80l282 289l-282 288l84 80l276 -286l277 286l84 -80z" />
<glyph unicode="&#xd8;" horiz-adv-x="1499" d="M1407 653q0 -140 -44.5 -263.5t-127 -217.5t-210 -148.5t-282.5 -54.5q-254 0 -421 135l-142 -161l-57 55l141 160q-172 187 -172 495q0 139 44.5 262t127 217t210 148.5t282.5 54.5q259 0 422 -135l141 162l57 -57l-139 -160q170 -185 170 -492zM451 371l569 651 q-42 122 -116 185t-171 63q-73 0 -127.5 -32t-95 -103t-61.5 -191.5t-21 -290.5q0 -154 23 -282zM1047 928l-574 -652q76 -239 293 -239q144 0 224.5 157t80.5 459q0 158 -24 275z" />
<glyph unicode="&#xd9;" horiz-adv-x="1462" d="M938 1432l-27 -19q-104 83 -170 141t-106 111q-36 48 -30.5 98t48.5 78q41 27 91.5 10.5t76.5 -65.5q60 -109 117 -354zM1178 1202l-148 68v35h385v-35l-149 -68v-772q0 -218 -136.5 -339.5t-361.5 -121.5q-265 0 -409 124t-144 374v754l-176 49v35h661v-35l-178 -49 v-795q0 -332 328 -332q157 0 242.5 93t85.5 262v753z" />
<glyph unicode="&#xda;" horiz-adv-x="1462" d="M1055 1841q42 -27 47 -77.5t-31 -98.5q-40 -53 -106 -111t-170 -141l-27 19q54 241 119 354q28 50 76.5 66t91.5 -11zM1178 1202l-148 68v35h385v-35l-149 -68v-772q0 -218 -136.5 -339.5t-361.5 -121.5q-265 0 -409 124t-144 374v754l-176 49v35h661v-35l-178 -49v-795 q0 -332 328 -332q157 0 242.5 93t85.5 262v753z" />
<glyph unicode="&#xdb;" horiz-adv-x="1462" d="M844 1571l-262 -152l-31 27l278 375h43l265 -375l-31 -27zM1178 1202l-148 68v35h385v-35l-149 -68v-772q0 -218 -136.5 -339.5t-361.5 -121.5q-265 0 -409 124t-144 374v754l-176 49v35h661v-35l-178 -49v-795q0 -332 328 -332q157 0 242.5 93t85.5 262v753z" />
<glyph unicode="&#xdc;" horiz-adv-x="1462" d="M1038 1462q-61 0 -101 42t-40 104q0 63 46 111t112 48q61 0 101 -41t40 -104t-46 -111.5t-112 -48.5zM647 1462q-62 0 -101.5 42t-39.5 104q0 63 45.5 111t110.5 48q63 0 102 -41t39 -104t-45.5 -111.5t-110.5 -48.5zM1178 1202l-148 68v35h385v-35l-149 -68v-772 q0 -218 -136.5 -339.5t-361.5 -121.5q-265 0 -409 124t-144 374v754l-176 49v35h661v-35l-178 -49v-795q0 -332 328 -332q157 0 242.5 93t85.5 262v753z" />
<glyph unicode="&#xdd;" horiz-adv-x="1304" d="M1008 1841q42 -27 47 -77.5t-31 -98.5q-40 -53 -106 -111t-170 -141l-27 19q54 241 119 354q28 50 76.5 66t91.5 -11zM1194 1202l-367 -581v-523l185 -63v-35h-674v35l182 63v457l-373 643l-153 72v35h647v-35l-152 -62l285 -510l248 498l-123 74v35h432v-35z" />
<glyph unicode="&#xde;" horiz-adv-x="1292" d="M1233 664q0 -161 -130.5 -277.5t-344.5 -116.5q-90 0 -215 19v-205l202 -49v-35h-686v35l177 49v1137l-177 49v35h686v-35l-202 -49v-193q125 19 207 19q129 0 225.5 -31t151 -85.5t80.5 -121t26 -145.5zM915 666q0 137 -62 213t-181 79l-129 5v-603l129 5 q118 3 180.5 82.5t62.5 218.5z" />
<glyph unicode="&#xdf;" horiz-adv-x="1892" d="M1817 324q0 -157 -111.5 -255t-271.5 -98q-153 0 -283 54l-64 -60h-38l-21 385l45 4q98 -170 186 -242.5t177 -72.5q82 0 128 41t46 110t-40 106t-149 79q-18 7 -53.5 18.5t-66 23t-54.5 23.5q-107 50 -151.5 115t-44.5 162q0 140 107 235t245 95q125 0 239 -50l64 54h39 l29 -355l-43 -4q-99 158 -171.5 222.5t-156.5 64.5q-63 0 -100 -37.5t-37 -95.5q0 -62 32 -100t113 -74q29 -13 95 -36t98 -38q117 -51 165 -113t48 -161zM870 324q0 -157 -111.5 -255t-271.5 -98q-152 0 -282 54l-64 -60h-39l-20 385l45 4q98 -170 186 -242.5t176 -72.5 q82 0 128.5 41t46.5 110t-40 106t-149 79q-18 7 -53.5 18.5t-66 23t-54.5 23.5q-107 50 -152 115t-45 162q0 140 107 235t246 95q125 0 239 -50l64 54h39l28 -355l-43 -4q-99 158 -171 222.5t-156 64.5q-63 0 -100.5 -37.5t-37.5 -95.5q0 -62 32.5 -100t113.5 -74 q29 -13 94.5 -36t97.5 -38q117 -51 165 -113t48 -161z" />
<glyph unicode="&#xe0;" horiz-adv-x="1099" d="M598 1145l-27 -19q-104 83 -170 141t-106 111q-36 48 -30.5 98t48.5 78q41 27 91.5 10.5t76.5 -65.5q60 -109 117 -354zM293 301l-74 -209l125 -61v-31h-375v31l135 67l385 934h129l373 -952l119 -49v-31h-528v27l120 49l-84 225h-325zM592 373l-139 372h-4l-132 -372 h275z" />
<glyph unicode="&#xe1;" horiz-adv-x="1099" d="M780 1554q42 -27 47.5 -77.5t-30.5 -98.5q-28 -37 -76.5 -83t-89.5 -79.5t-111 -89.5l-26 19q55 244 118 354q28 50 76.5 66t91.5 -11zM293 301l-74 -209l125 -61v-31h-375v31l135 67l385 934h129l373 -952l119 -49v-31h-528v27l120 49l-84 225h-325zM592 373l-139 372 h-4l-132 -372h275z" />
<glyph unicode="&#xe2;" horiz-adv-x="1099" d="M549 1253l-262 -151l-31 26l279 375h43l264 -375l-31 -26zM293 301l-74 -209l125 -61v-31h-375v31l135 67l385 934h129l373 -952l119 -49v-31h-528v27l120 49l-84 225h-325zM592 373l-139 372h-4l-132 -372h275z" />
<glyph unicode="&#xe3;" horiz-adv-x="1099" d="M240 1167q21 138 66 200.5t138 62.5q62 0 155 -41t136 -41q35 0 61.5 22t47.5 74l45 -12q-9 -140 -52.5 -204.5t-138.5 -64.5q-63 0 -162.5 44t-142.5 44q-35 0 -61 -22t-47 -74zM293 301l-74 -209l125 -61v-31h-375v31l135 67l385 934h129l373 -952l119 -49v-31h-528v27 l120 49l-84 225h-325zM592 373l-139 372h-4l-132 -372h275z" />
<glyph unicode="&#xe4;" horiz-adv-x="1099" d="M739 1176q-61 0 -101 41.5t-40 103.5q0 63 46 111.5t112 48.5q61 0 101 -41.5t40 -104.5t-46 -111t-112 -48zM348 1176q-62 0 -101.5 41.5t-39.5 103.5q0 63 45 111.5t110 48.5q63 0 102.5 -41.5t39.5 -104.5t-45.5 -111t-110.5 -48zM293 301l-74 -209l125 -61v-31h-375 v31l135 67l385 934h129l373 -952l119 -49v-31h-528v27l120 49l-84 225h-325zM592 373l-139 372h-4l-132 -372h275z" />
<glyph unicode="&#xe5;" horiz-adv-x="1099" d="M477 1004q-64 20 -98.5 71t-34.5 117q0 79 58.5 138t156.5 59q97 0 150 -56t53 -139q0 -61 -35.5 -113t-97.5 -75l362 -926l119 -49v-31h-528v27l120 49l-84 225h-325l-74 -209l125 -61v-31h-375v31l135 67zM627 1194q0 71 -17.5 106t-58.5 35q-72 0 -72 -145 q0 -141 76 -141q41 0 56.5 35.5t15.5 109.5zM592 373l-139 372h-4l-132 -372h275z" />
<glyph unicode="&#xe6;" horiz-adv-x="1626" d="M1552 340l-30 -340h-957v33l140 45v291h-326l-186 -283l122 -55v-31h-372v31l125 61l602 840l-154 55v31h981l23 -350l-35 -11l-125 170q-44 61 -91 89.5t-124 31.5l-164 6v-405h78q64 0 98 27t62 100l18 49h39v-432h-39l-20 49q-31 73 -63.5 99t-94.5 26h-78v-401 l205 10q122 6 200 106l132 168zM705 440v416h-5l-274 -416h279z" />
<glyph unicode="&#xe7;" horiz-adv-x="1122" d="M645 -29h-8q-92 4 -171.5 23t-153 58.5t-125 97.5t-82.5 146.5t-31 199.5q0 113 43 214.5t118 176.5t184.5 118.5t235.5 43.5q65 0 134.5 -16.5t119.5 -43.5l58 62h24l31 -406l-43 -4q-95 173 -177.5 254.5t-170.5 81.5q-110 0 -184 -113t-74 -338q0 -244 95.5 -362.5 t248.5 -118.5q37 0 82 10l211 295l30 -8l-39 -313q-119 -54 -272 -60l-125 -108q164 -40 164 -193q0 -89 -70 -150t-176 -61q-76 0 -127 37t-51 86q0 35 22 58.5t54 23.5q35 0 54.5 -23t19.5 -57q0 -35 -29 -67q25 -7 49 -7q43 0 71.5 32.5t28.5 86.5q0 56 -32.5 88.5 t-79.5 32.5q-42 0 -66 -8l-24 24z" />
<glyph unicode="&#xe8;" horiz-adv-x="1114" d="M649 1145l-26 -19q-70 56 -111 89.5t-89.5 79.5t-76.5 83q-36 48 -30 98t49 78q41 27 91 10.5t76 -65.5q60 -109 117 -354zM985 1018l23 -350l-35 -11l-125 170q-44 61 -91 89.5t-124 31.5l-164 6v-405h78q64 0 98 27t62 100l18 49h39v-432h-39l-20 49q-31 73 -63.5 99 t-94.5 26h-78v-401l205 10q122 6 200 106l132 168l34 -10l-30 -340h-957v33l140 45v862l-140 45v33h932z" />
<glyph unicode="&#xe9;" horiz-adv-x="1114" d="M797 1554q42 -27 47 -77.5t-31 -98.5q-40 -53 -106 -111t-170 -141l-27 19q54 241 119 354q28 50 76.5 66t91.5 -11zM985 1018l23 -350l-35 -11l-125 170q-44 61 -91 89.5t-124 31.5l-164 6v-405h78q64 0 98 27t62 100l18 49h39v-432h-39l-20 49q-31 73 -63.5 99 t-94.5 26h-78v-401l205 10q122 6 200 106l132 168l34 -10l-30 -340h-957v33l140 45v862l-140 45v33h932z" />
<glyph unicode="&#xea;" horiz-adv-x="1114" d="M571 1284l-262 -151l-30 26l278 375h43l264 -375l-30 -26zM985 1018l23 -350l-35 -11l-125 170q-44 61 -91 89.5t-124 31.5l-164 6v-405h78q64 0 98 27t62 100l18 49h39v-432h-39l-20 49q-31 73 -63.5 99t-94.5 26h-78v-401l205 10q122 6 200 106l132 168l34 -10 l-30 -340h-957v33l140 45v862l-140 45v33h932z" />
<glyph unicode="&#xeb;" horiz-adv-x="1114" d="M752 1176q-61 0 -101.5 41.5t-40.5 103.5q0 63 46 111.5t112 48.5q61 0 101 -41.5t40 -104.5t-45.5 -111t-111.5 -48zM360 1176q-62 0 -101.5 41.5t-39.5 103.5q0 63 45.5 111.5t110.5 48.5q62 0 101.5 -41t39.5 -105q0 -63 -45.5 -111t-110.5 -48zM985 1018l23 -350 l-35 -11l-125 170q-44 61 -91 89.5t-124 31.5l-164 6v-405h78q64 0 98 27t62 100l18 49h39v-432h-39l-20 49q-31 73 -63.5 99t-94.5 26h-78v-401l205 10q122 6 200 106l132 168l34 -10l-30 -340h-957v33l140 45v862l-140 45v33h932z" />
<glyph unicode="&#xec;" horiz-adv-x="694" d="M436 1145l-26 -19q-70 56 -111 89.5t-89.5 79.5t-76.5 83q-36 48 -30 98t49 78q41 27 91 10.5t76 -65.5q60 -109 117 -354zM485 78l140 -45v-33h-555v33l139 45v862l-139 45v33h555v-33l-140 -45v-862z" />
<glyph unicode="&#xed;" horiz-adv-x="694" d="M559 1554q42 -27 47 -77.5t-31 -98.5q-40 -53 -106 -111t-170 -141l-27 19q54 241 119 354q28 50 76.5 66t91.5 -11zM485 78l140 -45v-33h-555v33l139 45v862l-139 45v33h555v-33l-140 -45v-862z" />
<glyph unicode="&#xee;" horiz-adv-x="694" d="M346 1284l-262 -151l-31 26l279 375h43l264 -375l-31 -26zM485 78l140 -45v-33h-555v33l139 45v862l-139 45v33h555v-33l-140 -45v-862z" />
<glyph unicode="&#xef;" horiz-adv-x="694" d="M535 1176q-61 0 -101.5 41.5t-40.5 103.5q0 63 46 111.5t112 48.5q61 0 101 -41.5t40 -104.5t-45.5 -111t-111.5 -48zM143 1176q-62 0 -101.5 41.5t-39.5 103.5q0 63 45.5 111.5t110.5 48.5q62 0 101.5 -41t39.5 -105q0 -63 -45.5 -111t-110.5 -48zM485 78l140 -45v-33 h-555v33l139 45v862l-139 45v33h555v-33l-140 -45v-862z" />
<glyph unicode="&#xf0;" d="M193 477h-140v92h140v371l-140 45v33h518q283 0 436.5 -136.5t153.5 -367.5q0 -233 -160 -373.5t-438 -140.5h-510v33l140 45v399zM469 569h199v-92h-199v-411l115 6q129 6 202.5 113t73.5 325q0 215 -82.5 321.5t-224.5 116.5l-84 6v-385z" />
<glyph unicode="&#xf1;" horiz-adv-x="1269" d="M336 1167q21 137 66.5 200t138.5 63q62 0 154.5 -41t135.5 -41q35 0 61.5 22t47.5 74l45 -12q-9 -140 -52.5 -204.5t-137.5 -64.5q-63 0 -163 44t-143 44q-35 0 -61 -22t-47 -74zM205 100v824l-135 61v33h362l137 -168l410 -494h12v562l-143 67v33h364v-33l-143 -67v-930 h-127l-151 184l-496 580h-12v-652l141 -69v-31h-363v31z" />
<glyph unicode="&#xf2;" d="M635 1145l-27 -19q-104 83 -170 141t-106 111q-36 48 -30.5 98t48.5 78q41 27 91.5 10.5t76.5 -65.5q60 -109 117 -354zM1151 510q0 -111 -34.5 -207.5t-100.5 -171.5t-170.5 -118.5t-235.5 -43.5q-138 0 -243 43t-168 119t-94 171.5t-31 207.5q0 110 35 206.5t101 171 t171 118t237 43.5q137 0 241.5 -43t167 -118.5t93.5 -170.5t31 -207zM852 510q0 237 -67 357t-185 120q-72 0 -120.5 -43.5t-77.5 -151.5t-29 -282q0 -133 18 -227t52.5 -148t78.5 -78t103 -24q106 0 166.5 121t60.5 356z" />
<glyph unicode="&#xf3;" d="M856 1554q42 -27 47 -77.5t-31 -98.5q-40 -53 -106 -111t-170 -141l-27 19q54 241 119 354q28 50 76.5 66t91.5 -11zM1151 510q0 -111 -34.5 -207.5t-100.5 -171.5t-170.5 -118.5t-235.5 -43.5q-138 0 -243 43t-168 119t-94 171.5t-31 207.5q0 110 35 206.5t101 171 t171 118t237 43.5q137 0 241.5 -43t167 -118.5t93.5 -170.5t31 -207zM852 510q0 237 -67 357t-185 120q-72 0 -120.5 -43.5t-77.5 -151.5t-29 -282q0 -133 18 -227t52.5 -148t78.5 -78t103 -24q106 0 166.5 121t60.5 356z" />
<glyph unicode="&#xf4;" d="M598 1284l-262 -151l-31 26l279 375h43l264 -375l-31 -26zM1151 510q0 -111 -34.5 -207.5t-100.5 -171.5t-170.5 -118.5t-235.5 -43.5q-138 0 -243 43t-168 119t-94 171.5t-31 207.5q0 110 35 206.5t101 171t171 118t237 43.5q137 0 241.5 -43t167 -118.5t93.5 -170.5 t31 -207zM852 510q0 237 -67 357t-185 120q-72 0 -120.5 -43.5t-77.5 -151.5t-29 -282q0 -133 18 -227t52.5 -148t78.5 -78t103 -24q106 0 166.5 121t60.5 356z" />
<glyph unicode="&#xf5;" d="M289 1167q21 137 66.5 200t138.5 63q62 0 154.5 -41t135.5 -41q35 0 61.5 22t47.5 74l45 -12q-9 -140 -52.5 -204.5t-137.5 -64.5q-63 0 -163 44t-143 44q-35 0 -61 -22t-47 -74zM1151 510q0 -111 -34.5 -207.5t-100.5 -171.5t-170.5 -118.5t-235.5 -43.5q-138 0 -243 43 t-168 119t-94 171.5t-31 207.5q0 110 35 206.5t101 171t171 118t237 43.5q137 0 241.5 -43t167 -118.5t93.5 -170.5t31 -207zM852 510q0 237 -67 357t-185 120q-72 0 -120.5 -43.5t-77.5 -151.5t-29 -282q0 -133 18 -227t52.5 -148t78.5 -78t103 -24q106 0 166.5 121 t60.5 356z" />
<glyph unicode="&#xf6;" d="M791 1176q-61 0 -101.5 41.5t-40.5 103.5q0 63 46 111.5t112 48.5q61 0 101 -41.5t40 -104.5t-45.5 -111t-111.5 -48zM399 1176q-62 0 -101.5 41.5t-39.5 103.5q0 63 45.5 111.5t110.5 48.5q62 0 101.5 -41t39.5 -105q0 -63 -45.5 -111t-110.5 -48zM1151 510 q0 -111 -34.5 -207.5t-100.5 -171.5t-170.5 -118.5t-235.5 -43.5q-138 0 -243 43t-168 119t-94 171.5t-31 207.5q0 110 35 206.5t101 171t171 118t237 43.5q137 0 241.5 -43t167 -118.5t93.5 -170.5t31 -207zM852 510q0 237 -67 357t-185 120q-72 0 -120.5 -43.5 t-77.5 -151.5t-29 -282q0 -133 18 -227t52.5 -148t78.5 -78t103 -24q106 0 166.5 121t60.5 356z" />
<glyph unicode="&#xf7;" horiz-adv-x="1034" d="M518 1085q54 0 91.5 -37.5t37.5 -91.5q0 -55 -37.5 -92t-91.5 -37q-56 0 -93.5 37t-37.5 92q0 54 38 91.5t93 37.5zM950 569h-866v117h866v-117zM518 428q54 0 91.5 -37.5t37.5 -91.5q0 -55 -37.5 -92t-91.5 -37q-56 0 -93.5 37t-37.5 92q0 54 38 91.5t93 37.5z" />
<glyph unicode="&#xf8;" d="M215 113q-141 147 -141 397q0 110 35 206.5t101 171t171 118t237 43.5q206 0 336 -97l111 127l57 -53l-108 -125q137 -143 137 -391q0 -111 -34.5 -207.5t-100.5 -171.5t-170.5 -118.5t-235.5 -43.5q-202 0 -336 94l-110 -124l-58 51zM387 307l428 488q-64 192 -215 192 q-72 0 -120.5 -43.5t-77.5 -151.5t-29 -282q0 -123 14 -203zM838 702l-430 -487q58 -182 217 -182q106 0 166.5 121t60.5 356q0 115 -14 192z" />
<glyph unicode="&#xf9;" d="M758 1145l-27 -19q-104 83 -170 141t-106 111q-36 48 -30.5 98t48.5 78q41 27 91.5 10.5t76.5 -65.5q60 -109 117 -354zM975 922l-125 63v33h336v-33l-127 -63v-562q0 -189 -116 -290t-304 -101q-217 0 -336 101.5t-119 310.5v559l-139 45v33h555v-33l-139 -45v-586 q0 -274 260 -274q121 0 187.5 76.5t66.5 218.5v547z" />
<glyph unicode="&#xfa;" d="M930 1554q42 -27 47 -77.5t-31 -98.5q-40 -53 -106 -111t-170 -141l-27 19q54 241 119 354q28 50 76.5 66t91.5 -11zM975 922l-125 63v33h336v-33l-127 -63v-562q0 -189 -116 -290t-304 -101q-217 0 -336 101.5t-119 310.5v559l-139 45v33h555v-33l-139 -45v-586 q0 -274 260 -274q121 0 187.5 76.5t66.5 218.5v547z" />
<glyph unicode="&#xfb;" d="M694 1284l-262 -151l-31 26l279 375h43l264 -375l-31 -26zM975 922l-125 63v33h336v-33l-127 -63v-562q0 -189 -116 -290t-304 -101q-217 0 -336 101.5t-119 310.5v559l-139 45v33h555v-33l-139 -45v-586q0 -274 260 -274q121 0 187.5 76.5t66.5 218.5v547z" />
<glyph unicode="&#xfc;" d="M887 1176q-61 0 -101.5 41.5t-40.5 103.5q0 63 46 111.5t112 48.5q61 0 101 -41.5t40 -104.5t-45.5 -111t-111.5 -48zM496 1176q-62 0 -102 41.5t-40 103.5q0 63 45.5 111.5t110.5 48.5q62 0 101.5 -41t39.5 -105q0 -63 -45 -111t-110 -48zM975 922l-125 63v33h336v-33 l-127 -63v-562q0 -189 -116 -290t-304 -101q-217 0 -336 101.5t-119 310.5v559l-139 45v33h555v-33l-139 -45v-586q0 -274 260 -274q121 0 187.5 76.5t66.5 218.5v547z" />
<glyph unicode="&#xfd;" horiz-adv-x="1097" d="M881 1554q42 -27 47 -77.5t-31 -98.5q-40 -53 -106 -111t-170 -141l-27 19q54 241 119 354q28 50 76.5 66t91.5 -11zM981 926l-276 -469v-367l145 -57v-33h-565v33l143 57v320l-293 512l-125 63v33h553v-33l-125 -53l219 -410l197 400l-121 63v33h377v-33z" />
<glyph unicode="&#xfe;" horiz-adv-x="1069" d="M1020 518q0 -140 -105 -224.5t-290 -84.5q-78 0 -156 10v-143l170 -43v-33h-586v33l140 45v862l-140 45v33h586v-33l-170 -43v-133q78 10 156 10q184 0 289.5 -83t105.5 -218zM737 514q0 110 -51.5 171.5t-144.5 64.5l-72 2v-476l72 3q93 3 144.5 64t51.5 171z" />
<glyph unicode="&#xff;" horiz-adv-x="1097" d="M836 1176q-61 0 -101.5 41.5t-40.5 103.5q0 63 46 111.5t112 48.5q61 0 101 -41.5t40 -104.5t-45.5 -111t-111.5 -48zM444 1176q-62 0 -101.5 41.5t-39.5 103.5q0 63 45.5 111.5t110.5 48.5q62 0 101.5 -41t39.5 -105q0 -63 -45.5 -111t-110.5 -48zM981 926l-276 -469 v-367l145 -57v-33h-565v33l143 57v320l-293 512l-125 63v33h553v-33l-125 -53l219 -410l197 400l-121 63v33h377v-33z" />
<glyph unicode="&#x152;" horiz-adv-x="2068" d="M1982 424l-38 -424h-1121q-176 0 -316 49.5t-230 138t-137.5 207t-47.5 258.5q0 138 52 257.5t146.5 207t236 137.5t311.5 50h1063l28 -441l-37 -10l-161 225q-58 81 -111.5 112.5t-155.5 35.5l-188 8v-543h70q87 0 130.5 36t79.5 132l25 68h43v-551h-43l-25 63 q-37 97 -80.5 132.5t-129.5 35.5h-70v-536l252 12q84 4 140.5 36t109.5 99l166 213zM430 653q0 -558 436 -575l103 -4v1159l-150 -8q-189 -9 -289 -143.5t-100 -428.5z" />
<glyph unicode="&#x153;" horiz-adv-x="1677" d="M1604 340l-31 -340h-920q-283 0 -436.5 136.5t-153.5 367.5q0 233 160.5 373.5t438.5 140.5h886l23 -350l-35 -11l-125 170q-44 61 -91 89.5t-124 31.5l-164 6v-405h78q64 0 98 27t62 100l18 49h39v-432h-39l-20 49q-31 73 -63.5 99t-94.5 26h-78v-401l205 10 q123 6 201 106l131 168zM756 63v889l-115 -6q-129 -6 -202.5 -113t-73.5 -325q0 -215 82.5 -321.5t224.5 -116.5z" />
<glyph unicode="&#x178;" horiz-adv-x="1304" d="M971 1462q-61 0 -101.5 42t-40.5 104q0 63 46 111t112 48q61 0 101 -41t40 -104t-45.5 -111.5t-111.5 -48.5zM580 1462q-62 0 -102 42t-40 104q0 63 45.5 111t110.5 48q63 0 102 -41t39 -104t-45 -111.5t-110 -48.5zM1194 1202l-367 -581v-523l185 -63v-35h-674v35 l182 63v457l-373 643l-153 72v35h647v-35l-152 -62l285 -510l248 498l-123 74v35h432v-35z" />
<glyph unicode="&#x2c6;" horiz-adv-x="653" d="M326 1190l-263 -152l-30 27l278 375h43l264 -375l-30 -27z" />
<glyph unicode="&#x2dc;" horiz-adv-x="718" d="M39 1073q21 137 66.5 199.5t138.5 62.5q62 0 155 -41t136 -41q69 0 108 97l45 -13q-9 -140 -52.5 -204t-137.5 -64q-63 0 -162.5 44t-142.5 44q-35 0 -61.5 -22t-47.5 -74z" />
<glyph unicode="&#x2000;" horiz-adv-x="933" />
<glyph unicode="&#x2001;" horiz-adv-x="1867" />
<glyph unicode="&#x2002;" horiz-adv-x="933" />
<glyph unicode="&#x2003;" horiz-adv-x="1867" />
<glyph unicode="&#x2004;" horiz-adv-x="622" />
<glyph unicode="&#x2005;" horiz-adv-x="466" />
<glyph unicode="&#x2006;" horiz-adv-x="311" />
<glyph unicode="&#x2007;" horiz-adv-x="311" />
<glyph unicode="&#x2008;" horiz-adv-x="233" />
<glyph unicode="&#x2009;" horiz-adv-x="373" />
<glyph unicode="&#x200a;" horiz-adv-x="103" />
<glyph unicode="&#x2010;" horiz-adv-x="665" d="M588 410h-510v165h510v-165z" />
<glyph unicode="&#x2011;" horiz-adv-x="665" d="M588 410h-510v165h510v-165z" />
<glyph unicode="&#x2012;" horiz-adv-x="665" d="M588 410h-510v165h510v-165z" />
<glyph unicode="&#x2013;" horiz-adv-x="1091" d="M1014 471h-936v92h936v-92z" />
<glyph unicode="&#x2014;" horiz-adv-x="1603" d="M1526 471h-1448v92h1448v-92z" />
<glyph unicode="&#x2018;" horiz-adv-x="446" d="M375 948q0 -60 -42.5 -103.5t-103.5 -43.5q-76 0 -121 54.5t-45 143.5q0 227 289 351l23 -29q-93 -81 -137.5 -142.5t-61.5 -119.5l4 -4l41 12q12 4 37 4q51 0 84 -35t33 -88z" />
<glyph unicode="&#x2019;" horiz-adv-x="448" d="M383 1137q0 -227 -289 -351l-22 29q164 141 198 262l-4 4l-41 -12q-24 -4 -37 -4q-51 0 -83.5 35t-32.5 88q0 61 42 104t103 43q76 0 121 -54.5t45 -143.5z" />
<glyph unicode="&#x201a;" horiz-adv-x="475" d="M383 57q0 -226 -289 -350l-22 29q164 141 198 262l-4 4l-41 -12q-24 -4 -37 -4q-51 0 -83.5 35t-32.5 88q0 61 42 104t103 43q76 0 121 -55t45 -144z" />
<glyph unicode="&#x201c;" horiz-adv-x="786" d="M715 967q0 -58 -40.5 -100t-99.5 -42q-71 0 -114 53t-43 138q0 215 276 334l21 -27q-90 -78 -132 -137t-57 -115l2 -4l41 12q20 4 35 4q47 0 79 -33.5t32 -82.5zM358 967q0 -58 -40 -100t-99 -42q-72 0 -115 53t-43 138q0 214 277 334l20 -27q-89 -78 -131 -137t-57 -115 l2 -4l41 12q20 4 35 4q47 0 78.5 -33t31.5 -83z" />
<glyph unicode="&#x201d;" horiz-adv-x="788" d="M725 1145q0 -215 -276 -334l-21 27q89 78 131 137t57 115l-2 4l-41 -13q-20 -4 -34 -4q-47 0 -79 33.5t-32 83.5q0 58 40 99.5t99 41.5q72 0 115 -52.5t43 -137.5zM369 1145q0 -214 -277 -334l-20 27q89 78 131 137t57 115l-2 4l-41 -13q-20 -4 -35 -4q-47 0 -78.5 33.5 t-31.5 83.5q0 58 40 99.5t99 41.5q72 0 115 -52.5t43 -137.5z" />
<glyph unicode="&#x201e;" horiz-adv-x="788" d="M725 66q0 -215 -276 -334l-21 26q89 78 131 137t57 115l-2 4l-41 -12q-20 -4 -34 -4q-47 0 -79 33.5t-32 83.5q0 58 40 99.5t99 41.5q72 0 115 -52.5t43 -137.5zM369 66q0 -214 -277 -334l-20 26q89 78 131 137t57 115l-2 4l-41 -12q-20 -4 -35 -4q-47 0 -78.5 33.5 t-31.5 83.5q0 58 40 99.5t99 41.5q72 0 115 -52.5t43 -137.5z" />
<glyph unicode="&#x2022;" horiz-adv-x="962" d="M809 653q0 -138 -96.5 -234.5t-233.5 -96.5q-138 0 -235 96.5t-97 234.5q0 137 97 233.5t235 96.5q137 0 233.5 -96.5t96.5 -233.5z" />
<glyph unicode="&#x2026;" horiz-adv-x="1318" d="M1251 113q0 -60 -41.5 -103t-101.5 -43t-102.5 43t-42.5 103t42.5 101.5t102.5 41.5t101.5 -41.5t41.5 -101.5zM805 113q0 -60 -41.5 -103t-101.5 -43t-103 43t-43 103t43 101.5t103 41.5t101.5 -41.5t41.5 -101.5zM358 113q0 -60 -41.5 -103t-101.5 -43t-102.5 43 t-42.5 103t42.5 101.5t102.5 41.5t101.5 -41.5t41.5 -101.5z" />
<glyph unicode="&#x202f;" horiz-adv-x="373" />
<glyph unicode="&#x2039;" horiz-adv-x="626" d="M281 459l231 -357l-47 -41l-404 388v20l404 387l47 -43z" />
<glyph unicode="&#x203a;" horiz-adv-x="626" d="M565 469v-20l-403 -388l-47 41l231 357l-231 354l47 43z" />
<glyph unicode="&#x205f;" horiz-adv-x="466" />
<glyph unicode="&#x2122;" horiz-adv-x="1116" d="M1010 1262v-299l51 -19v-22h-199v22l41 19v292h-8l-125 -333h-33l-133 333h-8v-286l55 -25v-22h-143v22l53 25v293l-53 18v25h194l19 -64l65 -176h5l63 176l20 64h187v-25zM446 1159l-16 -4l-57 82q-23 35 -58 41l-12 2v-317l51 -19v-22h-211v22l54 19v317l-13 -2 q-36 -7 -59 -41l-59 -82l-17 4l17 146h368z" />
<glyph unicode="&#x25fc;" horiz-adv-x="1013" d="M0 1014h1014v-1014h-1014v1014z" />
<glyph unicode="&#xfb01;" horiz-adv-x="1744" d="M1536 78l139 -45v-33h-555v33l140 45v862l-140 45v33h555v-33l-139 -45v-862zM1006 657l-35 -10l-127 180q-42 61 -89.5 89.5t-125.5 31.5l-160 6v-428h84q62 0 97.5 28.5t62.5 98.5l18 49h39v-432h-39l-20 49q-31 73 -63.5 99t-94.5 26h-84v-366l152 -45v-33h-568v33 l140 45v862l-140 45v33h930z" />
<glyph unicode="&#xfb02;" horiz-adv-x="2082" d="M2034 381l-41 -381h-889v33l139 45v862l-139 45v33h569v-33l-153 -43v-876l127 4q69 3 115.5 29.5t86.5 80.5l154 205zM1006 657l-35 -10l-127 180q-42 61 -89.5 89.5t-125.5 31.5l-160 6v-428h84q62 0 97.5 28.5t62.5 98.5l18 49h39v-432h-39l-20 49q-31 73 -63.5 99 t-94.5 26h-84v-366l152 -45v-33h-568v33l140 45v862l-140 45v33h930z" />
</font>
</defs>
</svg>
